<?xml version="1.0" encoding="UTF-8" standalone="no"?>
<svg width="1757px" height="687px" viewBox="0 0 1757 687" version="1.1" xmlns="http://www.w3.org/2000/svg" xmlns:xlink="http://www.w3.org/1999/xlink" xmlns:sketch="http://www.bohemiancoding.com/sketch/ns">
    <!-- Generator: Sketch 3.3.2 (12043) - http://www.bohemiancoding.com/sketch -->
    <title>api-key-request</title>
    <desc>Created with Sketch.</desc>
    <defs></defs>
    <g id="Page-1" stroke="none" stroke-width="1" fill="none" fill-rule="evenodd" sketch:type="MSPage">
        <g id="api-key-request" sketch:type="MSLayerGroup" transform="translate(0.000000, -15.000000)">
            <g id="Group" transform="translate(0.000000, 330.000000)" sketch:type="MSShapeGroup">
                <path d="M91.7832838,41.5685251 L89.0030784,41.5685251 L62.0169942,20.7557094 L62.0169942,18.6087601 L91.783195,41.5685074 L91.7832838,41.5685251 Z" id="Shape" fill="#DDD7D5"></path>
                <path d="M78.6404625,15.2375631 C41.1308933,15.2375631 10.6193528,47.9915765 10.6193528,88.2332355 C10.6193528,128.474894 41.1308933,161.228908 78.6404625,161.228908 L1673.68491,161.228908 C1711.20637,161.228908 1741.71205,128.474894 1741.71205,88.2332355 C1741.71205,47.9915765 1711.20655,15.2375631 1673.68491,15.2375631 L78.6404625,15.2375631 L78.6404625,15.2375631 Z" id="Shape" fill="#CFD8DC"></path>
                <path d="M89.0858643,21.0573444 C51.9431086,21.0573444 21.7272196,51.2740751 21.7272196,88.4106678 C21.7272196,125.547261 51.9431086,155.746248 89.0858643,155.746248 L1668.54384,155.746248 C1705.66885,155.746248 1735.89059,125.547261 1735.89059,88.4106678 C1735.89059,51.2740751 1705.66903,21.0573444 1668.54384,21.0573444 L89.0858643,21.0573444 L89.0858643,21.0573444 Z M1668.54384,176.70101 L89.0858643,176.70101 C40.3903452,176.70101 0.774836678,137.098107 0.774836678,88.4106678 C0.774836678,39.7232286 40.3903452,0.120326081 89.0858643,0.120326081 L1668.54384,0.120326081 C1717.23918,0.120326081 1756.84883,39.7232286 1756.84883,88.4106678 C1756.84883,137.098107 1717.23918,176.70101 1668.54384,176.70101 L1668.54384,176.70101 Z" id="Shape" fill="#455A64"></path>
                <path d="M113.126615,89.4575188 C112.612015,75.1032409 123.839416,63.0555838 138.190256,62.5410299 C152.541006,62.0264601 164.596572,73.2579267 165.105355,87.6122222 C165.619955,101.948757 154.398499,113.996414 140.041715,114.510968 C125.690964,115.025538 113.635398,103.811797 113.126615,89.4575188 L113.126615,89.4575188 Z M141.431773,153.439627 C144.040515,153.350906 145.412862,141.303254 147.920983,140.877416 C150.488252,140.451596 155.71743,151.399173 158.154602,150.653957 C160.639103,149.890984 158.840772,137.89657 161.165526,136.831959 C163.51984,135.749619 171.416908,144.958361 173.593815,143.592131 C175.782522,142.225922 170.925925,131.100911 172.913493,129.468533 C174.901066,127.818398 184.909929,134.685027 186.660927,132.804244 C188.417781,130.923461 180.857891,121.413087 182.360424,119.319403 C183.851043,117.225683 195.297354,121.271141 196.510039,119.00001 C197.71081,116.728876 187.962325,109.507397 188.867292,107.076556 C189.766516,104.681236 201.869421,105.621624 202.449118,103.102088 C203.017008,100.618018 191.724516,96.1822087 191.967017,93.573953 C192.209533,91.0544135 204.134917,88.8365091 204.046203,86.2105279 C203.951537,83.6022722 191.890105,82.2360253 191.476034,79.7165036 C191.044186,77.1614776 201.993556,71.9449662 201.248234,69.4964174 C200.491118,67.0123467 188.482874,68.804433 187.41805,66.4800673 C186.347364,64.120217 195.557637,56.224477 194.203054,54.0598022 C192.824758,51.8773664 181.703833,56.7212876 180.065257,54.7517866 C178.414875,52.746801 185.276689,42.7396159 183.395594,41.0007788 C181.508554,39.2441896 172.00842,46.8027992 169.914389,45.2946419 C167.814501,43.8041888 171.86654,32.3598052 169.589121,31.1532829 C167.323519,29.9467287 160.100806,39.6877794 157.675436,38.7828743 C155.279737,37.8957125 156.214387,25.7948079 153.688508,25.2092811 C151.204007,24.6415118 146.767462,35.9262134 144.176573,35.6955335 C141.644725,35.44713 139.414651,23.5236737 136.800053,23.6123899 C134.191312,23.7011116 132.818964,35.7664887 130.310843,36.1746009 C127.743574,36.6181818 122.520252,25.6528443 120.077224,26.4158212 C117.598668,27.1610335 119.391054,39.1554468 117.066301,40.2377842 C114.711986,41.302389 106.814918,32.0936389 104.638012,33.4598858 C102.449304,34.8260955 107.305902,45.9511061 105.330139,47.5834838 C103.336622,49.233619 93.327741,42.3847335 91.5708868,44.2654987 C89.8140327,46.1462817 97.3679606,55.6389129 95.8713897,57.7503403 C94.3866201,59.8263166 82.9403159,55.7808588 81.7217744,58.0697327 C80.521004,60.3231237 90.2694884,67.5446207 89.364522,69.9754617 C88.4712556,72.3707808 76.3743001,71.4303929 75.7886584,73.9676898 C75.2207682,76.4517251 86.5073159,80.8698086 86.2647966,83.4780465 C86.0282383,85.9976037 74.0909346,88.2332515 74.1914667,90.8415071 C74.2802842,93.4497628 86.3417086,94.8337352 86.7617429,97.3355315 C87.1934826,99.9083007 76.2382757,105.124812 76.9835797,107.573361 C77.7466531,110.039671 89.7489397,108.247613 90.8137638,110.571968 C91.8844494,112.931818 82.6741764,120.827558 84.0347051,123.009994 C85.4130013,125.192412 96.5339256,120.330747 98.1725015,122.318009 C99.8169264,124.305252 92.9551244,134.312419 94.8421645,136.069017 C96.7232596,137.82558 106.223376,130.266979 108.323263,131.757393 C110.411457,133.265579 106.365274,144.69223 108.642682,145.898752 C110.914247,147.123039 118.130997,137.364256 120.556368,138.269161 C122.958011,139.156322 122.017416,151.274953 124.543295,151.860479 C127.033652,152.428275 131.464341,141.125822 134.05523,141.374227 C136.587078,141.604898 138.817152,153.546087 141.43175,153.439627 L141.431773,153.439627 Z" id="Shape" fill="#1279BB"></path>
                <path d="M175.94277,84.507156 C173.724497,64.1911509 155.392693,49.4820083 135.085206,51.6999128 C114.777542,53.9178173 100.060102,72.24658 102.284409,92.562585 C104.508644,112.860847 122.840342,127.569989 143.148006,125.352085 C163.45567,123.13418 178.17311,104.805418 175.942947,84.507156 L175.94277,84.507156 Z M100.539249,92.7400174 C98.2144996,71.4836208 113.624129,52.2854396 134.895855,49.9610757 C156.167669,47.6367118 175.363002,63.0378583 177.699642,84.3119804 C180.018535,105.568377 164.608906,124.766558 143.33718,127.108665 C122.065366,129.433029 102.870033,114.014157 100.539249,92.7400174 L100.539249,92.7400174 Z" id="Shape" fill="#C0CECD"></path>
                <path d="M359.023015,89.4575188 C358.514264,75.1032409 369.735817,63.0555838 384.086656,62.5410299 C398.443263,62.0264601 410.492972,73.2579267 411.001578,87.6122222 C411.516286,101.948757 400.294722,113.996414 385.938115,114.510968 C371.587364,115.025538 359.537655,103.811797 359.023015,89.4575188 L359.023015,89.4575188 Z M387.322849,153.439627 C389.943392,153.350906 391.31574,141.303254 393.818005,140.877416 C396.385274,140.451596 401.614452,151.399173 404.05748,150.653957 C406.536036,149.890984 404.737801,137.89657 407.062547,136.831959 C409.416862,135.749619 417.31393,144.958361 419.490836,143.592131 C421.679437,142.225922 416.828909,131.100911 418.804557,129.468533 C420.798075,127.818398 430.806956,134.685027 432.557847,132.804244 C434.308852,130.923461 426.760774,121.413087 428.257451,119.319403 C429.74807,117.225683 441.194381,121.271141 442.407066,119.00001 C443.613794,116.728876 433.865208,109.507397 434.764319,107.076556 C435.663434,104.681236 447.766342,105.621624 448.346038,103.102088 C448.913929,100.618018 437.621436,96.1822087 437.864044,93.573953 C438.100602,91.0544135 450.037906,88.8365091 449.937267,86.2105279 C449.848558,83.6022722 437.792988,82.2360253 437.373043,79.7165036 C436.941195,77.1614776 447.890565,71.9449662 447.145243,69.4964174 C446.388019,67.0123467 434.385739,68.804433 433.321004,66.4800673 C432.244363,64.120217 441.454629,56.224477 440.0941,54.0598022 C438.715804,51.8773664 427.59488,56.7212876 425.956304,54.7517866 C424.317728,52.746801 431.173681,42.7396159 429.292586,41.0007788 C427.405546,39.2441896 417.911374,46.8027992 415.805417,45.2946419 C413.717331,43.8041888 417.76937,32.3598052 415.485999,31.1532829 C413.220397,29.9467287 405.99779,39.6877794 403.57242,38.7828743 C401.176721,37.8957125 402.117221,25.7948079 399.585492,25.2092811 C397.100991,24.6415118 392.664446,35.9262134 390.07345,35.6955335 C387.541709,35.44713 385.311636,23.5236737 382.697038,23.6123899 C380.088296,23.7011116 378.715948,35.7664887 376.207827,36.1746009 C373.640558,36.6181818 368.417236,25.6528443 365.974208,26.4158212 C363.495653,27.1610335 365.288038,39.1554468 362.963285,40.2377842 C360.608864,41.302389 352.711902,32.0936389 350.534996,33.4598858 C348.352251,34.8260955 353.208724,45.9511061 351.227124,47.5834838 C349.233606,49.233619 339.224725,42.3847335 337.467871,44.2654987 C335.716866,46.1462817 343.264945,55.6389129 341.768374,57.7503403 C340.277647,59.8263166 328.831444,55.7808588 327.624615,58.0697327 C326.417887,60.3231237 336.166473,67.5446207 335.2614,69.9754617 C334.368241,72.3707808 322.265339,71.4303929 321.685643,73.9676898 C321.117752,76.4517251 332.4043,80.8698086 332.161781,83.4780465 C331.925114,85.9976037 319.993775,88.2332515 320.088451,90.8415071 C320.17716,93.4497628 332.244549,94.8337352 332.658621,97.3355315 C333.090469,99.9083007 322.135153,105.124812 322.880564,107.573361 C323.643637,110.039671 335.645924,108.247613 336.710748,110.571968 C337.787281,112.931818 328.571161,120.827558 329.937546,123.009994 C331.304037,125.192412 342.430928,120.330747 344.075342,122.318009 C345.719875,124.305252 338.852109,134.312419 340.73906,136.069017 C342.620155,137.82558 352.126234,130.266979 354.220265,131.757393 C356.308458,133.265579 352.268221,144.69223 354.545642,145.898752 C356.805298,147.123039 364.033956,137.364256 366.453258,138.269161 C368.849063,139.156322 367.914414,151.274953 370.440292,151.860479 C372.930649,152.428275 377.367194,141.125822 379.952227,141.374227 C382.489913,141.604898 384.714148,153.546087 387.322784,153.439627 L387.322849,153.439627 Z" id="Shape" fill="#1279BB"></path>
                <path d="M421.844494,84.507156 C419.620259,64.1911509 401.288383,49.4820083 380.986753,51.6999128 C360.679266,53.9178173 345.961827,72.24658 348.180099,92.562585 C350.404228,112.860847 368.736032,127.569989 389.043696,125.352085 C409.351183,123.13418 424.068623,104.805418 421.844494,84.507156 L421.844494,84.507156 Z M346.43565,92.7400174 C344.104955,71.4836208 359.520529,52.2854396 380.798111,49.9610757 C402.063892,47.6367118 421.265259,63.0378583 423.595865,84.3119804 C425.914758,105.568377 410.505128,124.766558 389.239259,127.108665 C367.967445,129.433029 348.760222,114.014157 346.435472,92.7400174 L346.43565,92.7400174 Z" id="Shape" fill="#C0CECD"></path>
                <path d="M604.92119,89.4575188 C604.412439,75.1032409 615.645793,63.0555838 629.984653,62.5410299 C644.341367,62.0264601 656.384936,73.2579267 656.905609,87.6122222 C657.420318,101.948757 646.204715,113.996414 631.84818,114.510968 C617.491466,115.025538 605.435829,103.811797 604.921368,89.4575188 L604.92119,89.4575188 Z M633.231672,153.439627 C635.840414,153.350906 637.206799,141.303254 639.726827,140.877416 C642.282277,140.451596 647.517312,151.399173 649.948538,150.653957 C652.433039,149.890984 650.640666,137.89657 652.965407,136.831959 C655.325684,135.749619 663.204988,144.958361 665.387733,143.592131 C667.588242,142.225922 662.725806,131.100911 664.713369,129.468533 C666.700942,127.818398 676.709805,134.685027 678.466659,132.804244 C680.223513,130.923461 672.663623,121.413087 674.154462,119.319403 C675.645081,117.225683 687.091285,121.271141 688.315878,119.00001 C689.522498,116.728876 679.762095,109.507397 680.667168,107.076556 C681.572241,104.681236 693.651427,105.621624 694.243031,103.102088 C694.810813,100.618018 683.524268,96.1822087 683.77275,93.573953 C684.003459,91.0544135 695.928848,88.8365091 695.840241,86.2105279 C695.751423,83.6022722 683.678091,82.2360253 683.275803,79.7165036 C682.849913,77.1614776 693.781613,71.9449662 693.053966,69.4964174 C692.291001,67.0123467 680.276805,68.804433 679.21207,66.4800673 C678.147342,64.120217 687.357513,56.224477 685.991022,54.0598022 C684.624531,51.8773664 673.497853,56.7212876 671.865133,54.7517866 C670.214643,52.746801 677.082404,42.7396159 675.201415,41.0007788 C673.30245,39.2441896 663.808297,46.8027992 661.708302,45.2946419 C659.620216,43.8041888 663.666398,32.3598052 661.394841,31.1532829 C659.123276,29.9467287 651.90067,39.6877794 649.469461,38.7828743 C647.073655,37.8957125 648.014262,25.7948079 645.47657,25.2092811 C642.992069,24.6415118 638.555524,35.9262134 635.982293,35.6955335 C633.444607,35.44713 631.20857,23.5236737 628.599935,23.6123899 C625.991193,23.7011116 624.624808,35.7664887 622.10478,36.1746009 C619.549436,36.6181818 614.314295,25.6528443 611.871161,26.4158212 C609.392605,27.1610335 611.18499,39.1554468 608.8662,40.2377842 C606.505922,41.302389 598.608854,32.0936389 596.437911,33.4598858 C594.243365,34.8260955 599.099838,45.9511061 597.118232,47.5834838 C595.13066,49.233619 585.121796,42.3847335 583.364942,44.2654987 C581.608088,46.1462817 589.162016,55.6389129 587.665445,57.7503403 C586.174718,59.8263166 574.734371,55.7808588 573.521686,58.0697327 C572.314958,60.3231237 582.063544,67.5446207 581.164433,69.9754617 C580.26521,72.3707808 568.168267,71.4303929 567.576751,73.9676898 C567.01471,76.4517251 578.301353,80.8698086 578.058852,83.4780465 C577.822185,85.9976037 565.890846,88.2332515 565.985522,90.8415071 C566.080188,93.4497628 578.14162,94.8337352 578.555692,97.3355315 C578.98754,99.9083007 568.032224,105.124812 568.783491,107.573361 C569.534758,110.039671 581.542995,108.247613 582.60773,110.571968 C583.684372,112.931818 574.468143,120.827558 575.828672,123.009994 C577.206968,125.192412 588.333855,120.330747 589.972431,122.318009 C591.611007,124.305252 584.755054,134.312419 586.636149,136.069017 C588.517244,137.82558 598.01736,130.266979 600.117354,131.757393 C602.211386,133.265579 598.159365,144.69223 600.442622,145.898752 C602.708224,147.123039 609.930937,137.364256 612.350345,138.269161 C614.740187,139.156322 613.817351,151.274953 616.337273,151.860479 C618.839537,152.428275 623.258319,141.125822 625.849314,141.374227 C628.387,141.604898 630.623037,153.546087 633.231672,153.439627 L633.231672,153.439627 Z" id="Shape" fill="#1279BB"></path>
                <path d="M667.747993,84.507156 C665.52972,64.1911509 647.197916,49.4820083 626.878539,51.6999128 C606.571053,53.9178173 591.859469,72.24658 594.077742,92.562585 C596.307922,112.860847 614.633852,127.569989 634.935483,125.352085 C655.254859,123.13418 669.966265,104.805418 667.747993,84.507156 L667.747993,84.507156 Z M592.33205,92.7400174 C590.0073,71.4836208 605.416823,52.2854396 626.700368,49.9610757 C647.960292,47.6367118 667.161659,63.0378583 669.480375,84.3119804 C671.81107,105.568377 656.407509,124.766558 635.129803,127.108665 C613.852133,129.433029 594.656799,114.014157 592.33205,92.7400174 L592.33205,92.7400174 Z" id="Shape" fill="#C0CECD"></path>
                <path d="M850.817591,89.4575188 C850.303099,75.1032409 861.536355,63.0555838 875.892944,62.5410299 C890.231999,62.0264601 902.29926,73.2579267 902.813899,87.6122222 C903.310844,101.948757 892.095135,113.996414 877.738546,114.510968 C863.38194,115.025538 851.33223,103.811797 850.817591,89.4575188 L850.817591,89.4575188 Z M879.122748,153.439627 C881.731384,153.350906 883.115639,141.303254 885.617691,140.877416 C888.191011,140.451596 893.408282,151.399173 895.857272,150.653957 C898.324009,149.890984 896.531636,137.89657 898.850432,136.831959 C901.216654,135.749619 909.113634,144.958361 911.272758,143.592131 C913.479336,142.225922 908.610831,131.100911 910.598394,129.468533 C912.592018,127.818398 922.600899,134.685027 924.351684,132.804244 C926.114604,130.923461 918.554717,121.413087 920.063089,119.319403 C921.553708,117.225683 932.982362,121.271141 934.206742,119.00001 C935.413578,116.728876 925.653171,109.507397 926.558244,107.076556 C927.457252,104.681236 939.566124,105.621624 940.134108,103.102088 C940.70189,100.618018 929.415344,96.1822087 929.663826,93.573953 C929.906233,91.0544135 941.837688,88.8365091 941.748868,86.2105279 C941.642504,83.6022722 929.575006,82.2360253 929.16688,79.7165036 C928.740989,77.1614776 939.690453,71.9449662 938.945043,69.4964174 C938.181861,67.0123467 926.185433,68.804433 925.120697,66.4800673 C924.038207,64.120217 933.266354,56.224477 931.893793,54.0598022 C930.515605,51.8773664 919.388717,56.7212876 917.755997,54.7517866 C916.105723,52.746801 922.97348,42.7396159 921.092279,41.0007788 C919.21129,39.2441896 909.699373,46.8027992 907.605217,45.2946419 C905.505223,43.8041888 909.557262,32.3598052 907.279841,31.1532829 C905.014346,29.9467287 897.791526,39.6877794 895.378063,38.7828743 C892.964601,37.8957125 893.922972,25.7948079 891.385173,25.2092811 C888.900885,24.6415118 884.46434,35.9262134 881.873238,35.6955335 C879.329589,35.44713 877.111316,23.5236737 874.490986,23.6123899 C871.882138,23.7011116 870.515647,35.7664887 868.007526,36.1746009 C865.440257,36.6181818 860.222986,25.6528443 857.774013,26.4158212 C855.289513,27.1610335 857.09965,39.1554468 854.757039,40.2377842 C852.414631,41.302389 844.51767,32.0936389 842.334712,33.4598858 C840.151968,34.8260955 844.996639,45.9511061 843.02684,47.5834838 C841.039268,49.233619 831.030404,42.3847335 829.27355,44.2654987 C827.516696,46.1462817 835.058823,55.6389129 833.568197,57.7503403 C832.071512,59.8263166 820.63116,55.7808588 819.424544,58.0697327 C818.217708,60.3231237 827.96035,67.5446207 827.055277,69.9754617 C826.167968,72.3707808 814.065162,71.4303929 813.479627,73.9676898 C812.911628,76.4517251 824.215942,80.8698086 823.96746,83.4780465 C823.718987,85.9976037 811.793598,88.2332515 811.882417,90.8415071 C811.971018,93.4497628 824.038516,94.8337352 824.446642,97.3355315 C824.872533,99.9083007 813.923281,105.124812 814.668479,107.573361 C815.443359,110.039671 827.445853,108.247613 828.510588,110.571968 C829.593079,112.931818 820.365145,120.827558 821.731423,123.009994 C823.097915,125.192412 834.224805,120.330747 835.875289,122.318009 C837.507799,124.305252 830.640041,134.312419 832.539007,136.069017 C834.419996,137.82558 843.914149,130.266979 846.026069,131.757393 C848.10223,133.265579 844.050209,144.69223 846.345379,145.898752 C848.616944,147.123039 855.81593,137.364256 858.247157,138.269161 C860.648907,139.156322 859.708313,151.274953 862.240047,151.860479 C864.730617,152.428275 869.167162,141.125822 871.74027,141.374227 C874.277849,141.604898 876.513886,153.546087 879.122734,153.439627 L879.122748,153.439627 Z" id="Shape" fill="#1279BB"></path>
                <path d="M913.639069,84.507156 C911.420797,64.1911509 893.082959,49.4820083 872.787362,51.6999128 C852.479698,53.9178173 837.756402,72.24658 839.974674,92.562585 C842.210711,112.860847 860.524751,127.569989 880.844128,125.352085 C901.145581,123.13418 915.857342,104.805418 913.639069,84.507156 L913.639069,84.507156 Z M838.235549,92.7400174 C835.910692,71.4836208 851.314484,52.2854396 872.592154,49.9610757 C893.869824,47.6367118 913.047412,63.0378583 915.395941,84.3119804 C917.720797,105.568377 902.29926,124.766558 881.02159,127.108665 C859.761666,129.433029 840.560298,114.014157 838.235549,92.7400174 L838.235549,92.7400174 Z" id="Shape" fill="#C0CECD"></path>
                <path d="M1096.72641,89.4575188 C1096.21777,75.1032409 1107.43327,63.0555838 1121.78402,62.5410299 C1136.14668,62.0264601 1148.19034,73.2579267 1148.71083,87.6122222 C1149.20778,101.948757 1137.98623,113.996414 1123.63548,114.510968 C1109.27887,115.025538 1097.24691,103.811797 1096.72641,89.4575188 L1096.72641,89.4575188 Z M1125.03157,153.439627 C1127.64021,153.350906 1129.0067,141.303254 1131.50896,140.877416 C1134.08207,140.451596 1139.31127,151.399173 1141.74247,150.653957 C1144.23304,149.890984 1142.44067,137.89657 1144.76531,136.831959 C1147.10793,135.749619 1155.00489,144.958361 1157.18763,143.592131 C1159.37038,142.225922 1154.52571,131.100911 1156.51327,129.468533 C1158.48308,127.818398 1168.49194,134.685027 1170.24879,132.804244 C1172.00565,130.923461 1164.44576,121.413087 1165.95436,119.319403 C1167.44498,117.225683 1178.89118,121.271141 1180.09801,119.00001 C1181.30463,116.728876 1171.54423,109.507397 1172.46707,107.076556 C1173.35438,104.681236 1185.45133,105.621624 1186.04293,103.102088 C1186.61093,100.618018 1175.3064,96.1822087 1175.55488,93.573953 C1175.80336,91.0544135 1187.72875,88.8365091 1187.64014,86.2105279 C1187.55132,83.6022722 1175.48404,82.2360253 1175.07592,79.7165036 C1174.63226,77.1614776 1185.58151,71.9449662 1184.83631,69.4964174 C1184.0909,67.0123467 1172.0767,68.804433 1171.01197,66.4800673 C1169.92341,64.120217 1179.15741,56.224477 1177.79092,54.0598022 C1176.42443,51.8773664 1165.29775,56.7212876 1163.64727,54.7517866 C1162.01454,52.746801 1168.86475,42.7396159 1166.98355,41.0007788 C1165.10235,39.2441896 1155.6082,46.8027992 1153.49649,45.2946419 C1151.40235,43.8041888 1155.4663,32.3598052 1153.17696,31.1532829 C1150.92316,29.9467287 1143.70055,39.6877794 1141.26935,38.7828743 C1138.8676,37.8957125 1139.81404,25.7948079 1137.27646,25.2092811 C1134.79195,24.6415118 1130.35541,35.9262134 1127.76452,35.6955335 C1125.22673,35.44713 1123.00845,23.5236737 1120.39982,23.6123899 C1117.78512,23.7011116 1116.40693,35.7664887 1113.90466,36.1746009 C1111.33156,36.6181818 1106.11407,25.6528443 1103.66508,26.4158212 C1101.19856,27.1610335 1102.99072,39.1554468 1100.66608,40.2377842 C1098.30591,41.302389 1090.40874,32.0936389 1088.22599,33.4598858 C1086.04325,34.8260955 1090.90569,45.9511061 1088.91812,47.5834838 C1086.93055,49.233619 1076.92169,42.3847335 1075.16483,44.2654987 C1073.40798,46.1462817 1080.9618,55.6389129 1079.45948,57.7503403 C1077.96864,59.8263166 1066.54021,55.7808588 1065.31561,58.0697327 C1064.10293,60.3231237 1073.86333,67.5446207 1072.96432,69.9754617 C1072.05925,72.3707808 1059.95623,71.4303929 1059.38846,73.9676898 C1058.82068,76.4517251 1070.10115,80.8698086 1069.85874,83.4780465 C1069.62803,85.9976037 1057.67883,88.2332515 1057.77349,90.8415071 C1057.88007,93.4497628 1069.94735,94.8337352 1070.35569,97.3355315 C1070.78158,99.9083007 1059.83211,105.124812 1060.57753,107.573361 C1061.34049,110.039671 1073.33692,108.247613 1074.40166,110.571968 C1075.48415,112.931818 1066.27398,120.827558 1067.62271,123.009994 C1069.00696,125.192412 1080.13364,120.330747 1081.76636,122.318009 C1083.41078,124.305252 1076.54909,134.312419 1078.43008,136.069017 C1080.30521,137.82558 1089.8232,130.266979 1091.91714,131.757393 C1094.01128,133.265579 1089.96509,144.69223 1092.23667,145.898752 C1094.50216,147.123039 1101.71307,137.364256 1104.14428,138.269161 C1106.55774,139.156322 1105.61735,151.274953 1108.13717,151.860479 C1110.62167,152.428275 1115.05822,141.125822 1117.64911,141.374227 C1120.1869,141.604898 1122.40517,153.546087 1125.03157,153.439627 L1125.03157,153.439627 Z" id="Shape" fill="#1279BB"></path>
                <path d="M1159.53015,84.507156 C1157.31187,64.1911509 1138.97989,49.4820083 1118.6724,51.6999128 C1098.37681,53.9178173 1083.66522,72.24658 1085.8835,92.562585 C1088.10177,112.860847 1106.43357,127.569989 1126.73503,125.352085 C1147.05458,123.13418 1161.76599,104.805418 1159.53015,84.507156 L1159.53015,84.507156 Z M1084.12663,92.7400174 C1081.80198,71.4836208 1097.22331,52.2854396 1118.48341,49.9610757 C1139.75504,47.6367118 1158.96227,63.0378583 1161.2872,84.3119804 C1163.61184,105.568377 1148.20826,124.766558 1126.93059,127.108665 C1105.67049,129.433029 1086.45137,114.014157 1084.12663,92.7400174 L1084.12663,92.7400174 Z" id="Shape" fill="#C0CECD"></path>
                <path d="M1342.61749,89.4575188 C1342.103,75.1032409 1353.33625,63.0555838 1367.6751,62.5410299 C1382.03192,62.0264601 1394.08141,73.2579267 1394.59605,87.6122222 C1395.11076,101.948757 1383.87729,113.996414 1369.53845,114.510968 C1355.18184,115.025538 1343.13213,103.811797 1342.61749,89.4575188 L1342.61749,89.4575188 Z M1370.92265,153.439627 C1373.53128,153.350906 1374.8917,141.303254 1377.41759,140.877416 C1379.97315,140.451596 1385.20818,151.399173 1387.63941,150.653957 C1390.12391,149.890984 1388.33154,137.89657 1390.65638,136.831959 C1393.01655,135.749619 1400.89596,144.958361 1403.07871,143.592131 C1405.27315,142.225922 1400.41678,131.100911 1402.39828,129.468533 C1404.38585,127.818398 1414.40078,134.685027 1416.15157,132.804244 C1417.91449,130.923461 1410.3546,121.413087 1411.84521,119.319403 C1413.33583,117.225683 1424.78225,121.271141 1426.00663,119.00001 C1427.1957,116.728876 1417.45306,109.507397 1418.35813,107.076556 C1419.25714,104.681236 1431.34824,105.621624 1431.93399,103.102088 C1432.50177,100.618018 1421.21523,96.1822087 1421.44595,93.573953 C1421.68835,91.0544135 1433.63757,88.8365091 1433.53099,86.2105279 C1433.44239,83.6022722 1421.37489,82.2360253 1420.96676,79.7165036 C1420.54087,77.1614776 1431.49034,71.9449662 1430.74493,69.4964174 C1429.98175,67.0123467 1417.96777,68.804433 1416.90282,66.4800673 C1415.83809,64.120217 1425.04847,56.224477 1423.68198,54.0598022 C1422.31549,51.8773664 1411.1886,56.7212876 1409.55588,54.7517866 C1407.90561,52.746801 1414.77337,42.7396159 1412.87463,41.0007788 C1410.99343,39.2441896 1401.49928,46.8027992 1399.40512,45.2946419 C1397.31119,43.8041888 1401.35716,32.3598052 1399.08581,31.1532829 C1396.81424,29.9467287 1389.59143,39.6877794 1387.16022,38.7828743 C1384.76452,37.8957125 1385.70513,25.7948079 1383.18509,25.2092811 C1380.68304,24.6415118 1376.26426,35.9262134 1373.67315,35.6955335 C1371.13558,35.44713 1368.89347,23.5236737 1366.2909,23.6123899 C1363.68206,23.7011116 1362.31556,35.7664887 1359.79575,36.1746009 C1357.24019,36.6181818 1352.00516,25.6528443 1349.57393,26.4158212 C1347.08943,27.1610335 1348.8818,39.1554468 1346.55696,40.2377842 C1344.19678,41.302389 1336.29375,32.0936389 1334.13463,33.4598858 C1331.95188,34.8260955 1336.79656,45.9511061 1334.80899,47.5834838 C1332.82142,49.233619 1322.81277,42.3847335 1321.0557,44.2654987 C1319.29885,46.1462817 1326.85874,55.6389129 1325.36811,57.7503403 C1323.87143,59.8263166 1312.43108,55.7808588 1311.21839,58.0697327 C1309.99986,60.3231237 1319.76025,67.5446207 1318.85518,69.9754617 C1317.96787,72.3707808 1305.86506,71.4303929 1305.27953,73.9676898 C1304.71153,76.4517251 1315.99808,80.8698086 1315.76736,83.4780465 C1315.51889,85.9976037 1303.5935,88.2332515 1303.67627,90.8415071 C1303.77093,93.4497628 1315.83841,94.8337352 1316.24654,97.3355315 C1316.67243,99.9083007 1305.72318,105.124812 1306.46838,107.573361 C1307.22549,110.039671 1319.24575,108.247613 1320.31049,110.571968 C1321.37522,112.931818 1312.16504,120.827558 1313.53132,123.009994 C1314.89781,125.192412 1326.0247,120.330747 1327.65742,122.318009 C1329.3077,124.305252 1322.43994,134.312419 1324.33889,136.069017 C1326.21988,137.82558 1335.71403,130.266979 1337.80819,131.757393 C1339.90211,133.265579 1335.85009,144.69223 1338.14526,145.898752 C1340.39906,147.123039 1347.62188,137.364256 1350.04704,138.269161 C1352.44879,139.156322 1351.50819,151.274953 1354.02823,151.860479 C1356.51273,152.428275 1360.94928,141.125822 1363.54017,141.374227 C1366.07775,141.604898 1368.31378,153.546087 1370.92263,153.439627 L1370.92265,153.439627 Z" id="Shape" fill="#1279BB"></path>
                <path d="M1405.43897,84.507156 C1403.2207,64.1911509 1384.88889,49.4820083 1364.56951,51.6999128 C1344.26806,53.9178173 1329.5563,72.24658 1331.77457,92.562585 C1333.99285,112.860847 1352.32465,127.569989 1372.64403,125.352085 C1392.94548,123.13418 1407.65724,104.805418 1405.43897,84.507156 L1405.43897,84.507156 Z M1330.03545,92.7400174 C1327.69304,71.4836208 1343.11438,52.2854396 1364.37431,49.9610757 C1385.65198,47.6367118 1404.85352,63.0378583 1407.19584,84.3119804 C1409.5207,105.568377 1394.09916,124.766558 1372.82149,127.108665 C1351.56156,129.433029 1332.3602,114.014157 1330.03545,92.7400174 L1330.03545,92.7400174 Z" id="Shape" fill="#C0CECD"></path>
                <path d="M1588.50857,89.4575188 C1587.99992,75.1032409 1599.23317,63.0555838 1613.57221,62.5410299 C1627.92881,62.0264601 1639.99627,73.2579267 1640.49298,87.6122222 C1641.00769,101.948757 1629.7922,113.996414 1615.43538,114.510968 C1601.09654,115.025538 1589.02906,103.811797 1588.50857,89.4575188 L1588.50857,89.4575188 Z M1616.81372,153.439627 C1619.42236,153.350906 1620.78885,141.303254 1623.30888,140.877416 C1625.88199,140.451596 1631.09342,151.399173 1633.54239,150.653957 C1636.0152,149.890984 1634.24058,137.89657 1636.56522,136.831959 C1638.90784,135.749619 1646.8048,144.958361 1648.98755,143.592131 C1651.17029,142.225922 1646.30786,131.100911 1648.29542,129.468533 C1650.28299,127.818398 1660.29186,134.685027 1662.04871,132.804244 C1663.80557,130.923461 1656.24567,121.413087 1657.75428,119.319403 C1659.2449,117.225683 1670.67334,121.271141 1671.89793,119.00001 C1673.10455,116.728876 1663.34415,109.507397 1664.24922,107.076556 C1665.15429,104.681236 1677.25731,105.621624 1677.84285,103.102088 C1678.41085,100.618018 1667.10632,96.1822087 1667.3548,93.573953 C1667.58551,91.0544135 1679.52866,88.8365091 1679.42229,86.2105279 C1679.35124,83.6022722 1667.28396,82.2360253 1666.85807,79.7165036 C1666.43218,77.1614776 1677.38143,71.9449662 1676.63623,69.4964174 C1675.89081,67.0123467 1663.87662,68.804433 1662.81189,66.4800673 C1661.7294,64.120217 1670.93957,56.224477 1669.59084,54.0598022 C1668.2068,51.8773664 1657.09767,56.7212876 1655.44719,54.7517866 C1653.81446,52.746801 1660.66467,42.7396159 1658.78347,41.0007788 C1656.90227,39.2441896 1647.40811,46.8027992 1645.29035,45.2946419 C1643.20227,43.8041888 1647.24845,32.3598052 1644.97689,31.1532829 C1642.70533,29.9467287 1635.48272,39.6877794 1633.06928,38.7828743 C1630.67358,37.8957125 1631.61397,25.7948079 1629.07639,25.2092811 C1626.59189,24.6415118 1622.15534,35.9262134 1619.5584,35.6955335 C1617.02666,35.44713 1614.80839,23.5236737 1612.19975,23.6123899 C1609.57335,23.7011116 1608.20686,35.7664887 1605.7046,36.1746009 C1603.13149,36.6181818 1597.914,25.6528443 1595.46501,26.4158212 C1592.98073,27.1610335 1594.7731,39.1554468 1592.44825,40.2377842 C1590.10584,41.302389 1582.20867,32.0936389 1580.02593,33.4598858 C1577.84318,34.8260955 1582.70562,45.9511061 1580.71805,47.5834838 C1578.73048,49.233619 1568.72162,42.3847335 1566.947,44.2654987 C1565.20791,46.1462817 1572.75004,55.6389129 1571.25941,57.7503403 C1569.76857,59.8263166 1558.32237,55.7808588 1557.11554,58.0697327 C1555.90286,60.3231237 1565.65156,67.5446207 1564.74649,69.9754617 C1563.85918,72.3707808 1551.75616,71.4303929 1551.17063,73.9676898 C1550.60285,76.4517251 1561.88332,80.8698086 1561.65867,83.4780465 C1561.4102,85.9976037 1549.48481,88.2332515 1549.57342,90.8415071 C1549.66224,93.4497628 1561.72973,94.8337352 1562.15562,97.3355315 C1562.58151,99.9083007 1551.63205,105.124812 1552.37746,107.573361 C1553.14042,110.039671 1565.13685,108.247613 1566.20159,110.571968 C1567.26653,112.931818 1558.05615,120.827558 1559.42264,123.009994 C1560.78306,125.192412 1571.91602,120.330747 1573.56629,122.318009 C1575.19295,124.305252 1568.34902,134.312419 1570.23001,136.069017 C1572.11121,137.82558 1581.60536,130.266979 1583.71707,131.757393 C1585.79344,133.265579 1581.76502,144.69223 1584.0366,145.898752 C1586.30816,147.123039 1593.53077,137.364256 1595.94421,138.269161 C1598.33991,139.156322 1597.39952,151.274953 1599.9371,151.860479 C1602.4216,152.428275 1606.85815,141.125822 1609.44904,141.374227 C1611.98683,141.604898 1614.2051,153.546087 1616.81374,153.439627 L1616.81372,153.439627 Z" id="Shape" fill="#1279BB"></path>
                <path d="M1651.33004,84.507156 C1649.11177,64.1911509 1630.77979,49.4820083 1610.4723,51.6999128 C1590.17671,53.9178173 1575.44738,72.24658 1577.66565,92.562585 C1579.90169,112.860847 1598.23347,127.569989 1618.53493,125.352085 C1638.83673,123.13418 1653.54832,104.805418 1651.33004,84.507156 L1651.33004,84.507156 Z M1575.92652,92.7400174 C1573.60167,71.4836208 1589.00546,52.2854396 1610.28313,49.9610757 C1631.5608,47.6367118 1650.74424,63.0378583 1653.08692,84.3119804 C1655.41156,105.568377 1639.99024,124.766558 1618.73031,127.108665 C1597.45246,129.433029 1578.2511,114.014157 1575.92652,92.7400174 L1575.92652,92.7400174 Z" id="Shape" fill="#C0CECD"></path>
            </g>
            <g id="Group" transform="translate(1509.000000, 507.000000)" sketch:type="MSShapeGroup">
                <path d="M189.995,48.3775 L177.1375,32.8375 C174.64,29.6925 170.85675,27.75 166.5,27.75 L55.5,27.75 C51.1525,27.75 47.36,29.6925 44.77,32.8375 L32.005,48.3775 C29.3225,51.5225 27.75,55.685 27.75,60.125 L27.75,175.75 C27.75,185.925 36.075,194.25 46.25,194.25 L175.75,194.25 C185.925,194.25 194.25,185.925 194.25,175.75 L194.25,60.125 C194.25,55.685 192.6775,51.5225 189.995,48.3775 L189.995,48.3775 Z" id="Shape" fill="#795548"></path>
                <path d="M47.36,46.25 L54.8525,37 L165.8525,37 L174.5475,46.25 L47.36,46.25 Z" id="Shape" fill="#5D4037"></path>
                <path d="M0,0 L222,0 L222,222 L0,222 L0,0 L0,0 Z" id="Shape"></path>
                <g id="ic_vpn_key_24px" transform="translate(56.202532, 56.764557)">
                    <g id="Capa_1">
                        <path d="M0,0 L108.470886,0 L108.470886,108.470886 L0,108.470886 L0,0 L0,0 Z" id="Shape"></path>
                        <path d="M57.1731962,45.1962025 C53.4671076,34.6654873 43.4335506,27.1177215 31.6373418,27.1177215 C16.6773987,27.1177215 4.51962025,39.2755 4.51962025,54.235443 L4.51962025,54.4162278 C4.61001266,69.2857785 16.7225949,81.3531646 31.6373418,81.3531646 C43.4335506,81.3531646 53.4671076,73.8053987 57.1731962,63.2746835 L76.8335443,63.2746835 L76.8335443,81.3531646 L94.9120253,81.3531646 L94.9120253,63.2746835 L103.951266,63.2746835 L103.951266,45.1962025 L57.1731962,45.1962025 L57.1731962,45.1962025 Z M31.6373418,63.2746835 C26.7109557,63.2746835 22.6884937,59.2974177 22.5981013,54.4162278 L22.5981013,54.235443 C22.5981013,49.2638608 26.6657595,45.1962025 31.6373418,45.1962025 C36.6089241,45.1962025 40.6765823,49.2638608 40.6765823,54.235443 L40.6765823,54.4162278 C40.5861899,59.2974177 36.5637278,63.2746835 31.6373418,63.2746835 L31.6373418,63.2746835 Z" id="Shape" fill="#FFD54F"></path>
                    </g>
                    <g id="Capa_2" transform="translate(4.519620, 27.117722)" fill="#FFB300">
                        <path d="M99.4316456,18.078481 L99.4316456,27.2985063 L36.156962,27.2985063 L36.156962,27.1177215 C36.156962,22.1461392 32.0893038,18.078481 27.1177215,18.078481 C22.1461392,18.078481 18.078481,22.1461392 18.078481,27.1177215 L18.078481,27.2985063 L0,27.2985063 L0,27.1177215 C0,12.1577785 12.1577785,0 27.1177215,0 C38.9139304,0 48.9474873,7.54776582 52.6535759,18.078481 L99.4316456,18.078481 L99.4316456,18.078481 Z" id="Shape"></path>
                    </g>
                </g>
            </g>
            <g id="Group-Copy-4" transform="translate(524.000000, 507.000000)" sketch:type="MSShapeGroup">
                <path d="M189.995,48.3775 L177.1375,32.8375 C174.64,29.6925 170.85675,27.75 166.5,27.75 L55.5,27.75 C51.1525,27.75 47.36,29.6925 44.77,32.8375 L32.005,48.3775 C29.3225,51.5225 27.75,55.685 27.75,60.125 L27.75,175.75 C27.75,185.925 36.075,194.25 46.25,194.25 L175.75,194.25 C185.925,194.25 194.25,185.925 194.25,175.75 L194.25,60.125 C194.25,55.685 192.6775,51.5225 189.995,48.3775 L189.995,48.3775 Z" id="Shape" fill="#795548"></path>
                <path d="M47.36,46.25 L54.8525,37 L165.8525,37 L174.5475,46.25 L47.36,46.25 Z" id="Shape" fill="#5D4037"></path>
                <path d="M0,0 L222,0 L222,222 L0,222 L0,0 L0,0 Z" id="Shape"></path>
                <g id="ic_vpn_key_24px" transform="translate(56.202532, 56.764557)">
                    <g id="Capa_1">
                        <path d="M0,0 L108.470886,0 L108.470886,108.470886 L0,108.470886 L0,0 L0,0 Z" id="Shape"></path>
                        <path d="M57.1731962,45.1962025 C53.4671076,34.6654873 43.4335506,27.1177215 31.6373418,27.1177215 C16.6773987,27.1177215 4.51962025,39.2755 4.51962025,54.235443 L4.51962025,54.4162278 C4.61001266,69.2857785 16.7225949,81.3531646 31.6373418,81.3531646 C43.4335506,81.3531646 53.4671076,73.8053987 57.1731962,63.2746835 L76.8335443,63.2746835 L76.8335443,81.3531646 L94.9120253,81.3531646 L94.9120253,63.2746835 L103.951266,63.2746835 L103.951266,45.1962025 L57.1731962,45.1962025 L57.1731962,45.1962025 Z M31.6373418,63.2746835 C26.7109557,63.2746835 22.6884937,59.2974177 22.5981013,54.4162278 L22.5981013,54.235443 C22.5981013,49.2638608 26.6657595,45.1962025 31.6373418,45.1962025 C36.6089241,45.1962025 40.6765823,49.2638608 40.6765823,54.235443 L40.6765823,54.4162278 C40.5861899,59.2974177 36.5637278,63.2746835 31.6373418,63.2746835 L31.6373418,63.2746835 Z" id="Shape" fill="#FFD54F"></path>
                    </g>
                    <g id="Capa_2" transform="translate(4.519620, 27.117722)" fill="#FFB300">
                        <path d="M99.4316456,18.078481 L99.4316456,27.2985063 L36.156962,27.2985063 L36.156962,27.1177215 C36.156962,22.1461392 32.0893038,18.078481 27.1177215,18.078481 C22.1461392,18.078481 18.078481,22.1461392 18.078481,27.1177215 L18.078481,27.2985063 L0,27.2985063 L0,27.1177215 C0,12.1577785 12.1577785,0 27.1177215,0 C38.9139304,0 48.9474873,7.54776582 52.6535759,18.078481 L99.4316456,18.078481 L99.4316456,18.078481 Z" id="Shape"></path>
                    </g>
                </g>
            </g>
            <g id="Group-Copy-2" transform="translate(1016.000000, 507.000000)" sketch:type="MSShapeGroup">
                <path d="M189.995,48.3775 L177.1375,32.8375 C174.64,29.6925 170.85675,27.75 166.5,27.75 L55.5,27.75 C51.1525,27.75 47.36,29.6925 44.77,32.8375 L32.005,48.3775 C29.3225,51.5225 27.75,55.685 27.75,60.125 L27.75,175.75 C27.75,185.925 36.075,194.25 46.25,194.25 L175.75,194.25 C185.925,194.25 194.25,185.925 194.25,175.75 L194.25,60.125 C194.25,55.685 192.6775,51.5225 189.995,48.3775 L189.995,48.3775 Z" id="Shape" fill="#795548"></path>
                <path d="M47.36,46.25 L54.8525,37 L165.8525,37 L174.5475,46.25 L47.36,46.25 Z" id="Shape" fill="#5D4037"></path>
                <path d="M0,0 L222,0 L222,222 L0,222 L0,0 L0,0 Z" id="Shape"></path>
                <g id="ic_vpn_key_24px" transform="translate(56.202532, 56.764557)">
                    <g id="Capa_1">
                        <path d="M0,0 L108.470886,0 L108.470886,108.470886 L0,108.470886 L0,0 L0,0 Z" id="Shape"></path>
                        <path d="M57.1731962,45.1962025 C53.4671076,34.6654873 43.4335506,27.1177215 31.6373418,27.1177215 C16.6773987,27.1177215 4.51962025,39.2755 4.51962025,54.235443 L4.51962025,54.4162278 C4.61001266,69.2857785 16.7225949,81.3531646 31.6373418,81.3531646 C43.4335506,81.3531646 53.4671076,73.8053987 57.1731962,63.2746835 L76.8335443,63.2746835 L76.8335443,81.3531646 L94.9120253,81.3531646 L94.9120253,63.2746835 L103.951266,63.2746835 L103.951266,45.1962025 L57.1731962,45.1962025 L57.1731962,45.1962025 Z M31.6373418,63.2746835 C26.7109557,63.2746835 22.6884937,59.2974177 22.5981013,54.4162278 L22.5981013,54.235443 C22.5981013,49.2638608 26.6657595,45.1962025 31.6373418,45.1962025 C36.6089241,45.1962025 40.6765823,49.2638608 40.6765823,54.235443 L40.6765823,54.4162278 C40.5861899,59.2974177 36.5637278,63.2746835 31.6373418,63.2746835 L31.6373418,63.2746835 Z" id="Shape" fill="#FFD54F"></path>
                    </g>
                    <g id="Capa_2" transform="translate(4.519620, 27.117722)" fill="#FFB300">
                        <path d="M99.4316456,18.078481 L99.4316456,27.2985063 L36.156962,27.2985063 L36.156962,27.1177215 C36.156962,22.1461392 32.0893038,18.078481 27.1177215,18.078481 C22.1461392,18.078481 18.078481,22.1461392 18.078481,27.1177215 L18.078481,27.2985063 L0,27.2985063 L0,27.1177215 C0,12.1577785 12.1577785,0 27.1177215,0 C38.9139304,0 48.9474873,7.54776582 52.6535759,18.078481 L99.4316456,18.078481 L99.4316456,18.078481 Z" id="Shape"></path>
                    </g>
                </g>
            </g>
            <g id="Group-Copy-5" transform="translate(32.500000, 507.000000)" sketch:type="MSShapeGroup">
                <path d="M189.995,48.3775 L177.1375,32.8375 C174.64,29.6925 170.85675,27.75 166.5,27.75 L55.5,27.75 C51.1525,27.75 47.36,29.6925 44.77,32.8375 L32.005,48.3775 C29.3225,51.5225 27.75,55.685 27.75,60.125 L27.75,175.75 C27.75,185.925 36.075,194.25 46.25,194.25 L175.75,194.25 C185.925,194.25 194.25,185.925 194.25,175.75 L194.25,60.125 C194.25,55.685 192.6775,51.5225 189.995,48.3775 L189.995,48.3775 Z" id="Shape" fill="#795548"></path>
                <path d="M47.36,46.25 L54.8525,37 L165.8525,37 L174.5475,46.25 L47.36,46.25 Z" id="Shape" fill="#5D4037"></path>
                <path d="M0,0 L222,0 L222,222 L0,222 L0,0 L0,0 Z" id="Shape"></path>
                <g id="ic_vpn_key_24px" transform="translate(56.202532, 56.764557)">
                    <g id="Capa_1">
                        <path d="M0,0 L108.470886,0 L108.470886,108.470886 L0,108.470886 L0,0 L0,0 Z" id="Shape"></path>
                        <path d="M57.1731962,45.1962025 C53.4671076,34.6654873 43.4335506,27.1177215 31.6373418,27.1177215 C16.6773987,27.1177215 4.51962025,39.2755 4.51962025,54.235443 L4.51962025,54.4162278 C4.61001266,69.2857785 16.7225949,81.3531646 31.6373418,81.3531646 C43.4335506,81.3531646 53.4671076,73.8053987 57.1731962,63.2746835 L76.8335443,63.2746835 L76.8335443,81.3531646 L94.9120253,81.3531646 L94.9120253,63.2746835 L103.951266,63.2746835 L103.951266,45.1962025 L57.1731962,45.1962025 L57.1731962,45.1962025 Z M31.6373418,63.2746835 C26.7109557,63.2746835 22.6884937,59.2974177 22.5981013,54.4162278 L22.5981013,54.235443 C22.5981013,49.2638608 26.6657595,45.1962025 31.6373418,45.1962025 C36.6089241,45.1962025 40.6765823,49.2638608 40.6765823,54.235443 L40.6765823,54.4162278 C40.5861899,59.2974177 36.5637278,63.2746835 31.6373418,63.2746835 L31.6373418,63.2746835 Z" id="Shape" fill="#FFD54F"></path>
                    </g>
                    <g id="Capa_2" transform="translate(4.519620, 27.117722)" fill="#FFB300">
                        <path d="M99.4316456,18.078481 L99.4316456,27.2985063 L36.156962,27.2985063 L36.156962,27.1177215 C36.156962,22.1461392 32.0893038,18.078481 27.1177215,18.078481 C22.1461392,18.078481 18.078481,22.1461392 18.078481,27.1177215 L18.078481,27.2985063 L0,27.2985063 L0,27.1177215 C0,12.1577785 12.1577785,0 27.1177215,0 C38.9139304,0 48.9474873,7.54776582 52.6535759,18.078481 L99.4316456,18.078481 L99.4316456,18.078481 Z" id="Shape"></path>
                    </g>
                </g>
            </g>
            <g id="Group-Copy" transform="translate(1262.000000, 507.000000)" sketch:type="MSShapeGroup">
                <path d="M189.995,48.3775 L177.1375,32.8375 C174.64,29.6925 170.85675,27.75 166.5,27.75 L55.5,27.75 C51.1525,27.75 47.36,29.6925 44.77,32.8375 L32.005,48.3775 C29.3225,51.5225 27.75,55.685 27.75,60.125 L27.75,175.75 C27.75,185.925 36.075,194.25 46.25,194.25 L175.75,194.25 C185.925,194.25 194.25,185.925 194.25,175.75 L194.25,60.125 C194.25,55.685 192.6775,51.5225 189.995,48.3775 L189.995,48.3775 Z" id="Shape" fill="#795548"></path>
                <path d="M47.36,46.25 L54.8525,37 L165.8525,37 L174.5475,46.25 L47.36,46.25 Z" id="Shape" fill="#5D4037"></path>
                <path d="M0,0 L222,0 L222,222 L0,222 L0,0 L0,0 Z" id="Shape"></path>
                <g id="ic_vpn_key_24px" transform="translate(56.202532, 56.764557)">
                    <g id="Capa_1">
                        <path d="M0,0 L108.470886,0 L108.470886,108.470886 L0,108.470886 L0,0 L0,0 Z" id="Shape"></path>
                        <path d="M57.1731962,45.1962025 C53.4671076,34.6654873 43.4335506,27.1177215 31.6373418,27.1177215 C16.6773987,27.1177215 4.51962025,39.2755 4.51962025,54.235443 L4.51962025,54.4162278 C4.61001266,69.2857785 16.7225949,81.3531646 31.6373418,81.3531646 C43.4335506,81.3531646 53.4671076,73.8053987 57.1731962,63.2746835 L76.8335443,63.2746835 L76.8335443,81.3531646 L94.9120253,81.3531646 L94.9120253,63.2746835 L103.951266,63.2746835 L103.951266,45.1962025 L57.1731962,45.1962025 L57.1731962,45.1962025 Z M31.6373418,63.2746835 C26.7109557,63.2746835 22.6884937,59.2974177 22.5981013,54.4162278 L22.5981013,54.235443 C22.5981013,49.2638608 26.6657595,45.1962025 31.6373418,45.1962025 C36.6089241,45.1962025 40.6765823,49.2638608 40.6765823,54.235443 L40.6765823,54.4162278 C40.5861899,59.2974177 36.5637278,63.2746835 31.6373418,63.2746835 L31.6373418,63.2746835 Z" id="Shape" fill="#FFD54F"></path>
                    </g>
                    <g id="Capa_2" transform="translate(4.519620, 27.117722)" fill="#FFB300">
                        <path d="M99.4316456,18.078481 L99.4316456,27.2985063 L36.156962,27.2985063 L36.156962,27.1177215 C36.156962,22.1461392 32.0893038,18.078481 27.1177215,18.078481 C22.1461392,18.078481 18.078481,22.1461392 18.078481,27.1177215 L18.078481,27.2985063 L0,27.2985063 L0,27.1177215 C0,12.1577785 12.1577785,0 27.1177215,0 C38.9139304,0 48.9474873,7.54776582 52.6535759,18.078481 L99.4316456,18.078481 L99.4316456,18.078481 Z" id="Shape"></path>
                    </g>
                </g>
            </g>
            <g id="Group-Copy-6" transform="translate(278.000000, 507.000000)" sketch:type="MSShapeGroup">
                <path d="M189.995,48.3775 L177.1375,32.8375 C174.64,29.6925 170.85675,27.75 166.5,27.75 L55.5,27.75 C51.1525,27.75 47.36,29.6925 44.77,32.8375 L32.005,48.3775 C29.3225,51.5225 27.75,55.685 27.75,60.125 L27.75,175.75 C27.75,185.925 36.075,194.25 46.25,194.25 L175.75,194.25 C185.925,194.25 194.25,185.925 194.25,175.75 L194.25,60.125 C194.25,55.685 192.6775,51.5225 189.995,48.3775 L189.995,48.3775 Z" id="Shape" fill="#795548"></path>
                <path d="M47.36,46.25 L54.8525,37 L165.8525,37 L174.5475,46.25 L47.36,46.25 Z" id="Shape" fill="#5D4037"></path>
                <path d="M0,0 L222,0 L222,222 L0,222 L0,0 L0,0 Z" id="Shape"></path>
                <g id="ic_vpn_key_24px" transform="translate(56.202532, 56.764557)">
                    <g id="Capa_1">
                        <path d="M0,0 L108.470886,0 L108.470886,108.470886 L0,108.470886 L0,0 L0,0 Z" id="Shape"></path>
                        <path d="M57.1731962,45.1962025 C53.4671076,34.6654873 43.4335506,27.1177215 31.6373418,27.1177215 C16.6773987,27.1177215 4.51962025,39.2755 4.51962025,54.235443 L4.51962025,54.4162278 C4.61001266,69.2857785 16.7225949,81.3531646 31.6373418,81.3531646 C43.4335506,81.3531646 53.4671076,73.8053987 57.1731962,63.2746835 L76.8335443,63.2746835 L76.8335443,81.3531646 L94.9120253,81.3531646 L94.9120253,63.2746835 L103.951266,63.2746835 L103.951266,45.1962025 L57.1731962,45.1962025 L57.1731962,45.1962025 Z M31.6373418,63.2746835 C26.7109557,63.2746835 22.6884937,59.2974177 22.5981013,54.4162278 L22.5981013,54.235443 C22.5981013,49.2638608 26.6657595,45.1962025 31.6373418,45.1962025 C36.6089241,45.1962025 40.6765823,49.2638608 40.6765823,54.235443 L40.6765823,54.4162278 C40.5861899,59.2974177 36.5637278,63.2746835 31.6373418,63.2746835 L31.6373418,63.2746835 Z" id="Shape" fill="#FFD54F"></path>
                    </g>
                    <g id="Capa_2" transform="translate(4.519620, 27.117722)" fill="#FFB300">
                        <path d="M99.4316456,18.078481 L99.4316456,27.2985063 L36.156962,27.2985063 L36.156962,27.1177215 C36.156962,22.1461392 32.0893038,18.078481 27.1177215,18.078481 C22.1461392,18.078481 18.078481,22.1461392 18.078481,27.1177215 L18.078481,27.2985063 L0,27.2985063 L0,27.1177215 C0,12.1577785 12.1577785,0 27.1177215,0 C38.9139304,0 48.9474873,7.54776582 52.6535759,18.078481 L99.4316456,18.078481 L99.4316456,18.078481 Z" id="Shape"></path>
                    </g>
                </g>
            </g>
            <g id="Group-Copy-3" transform="translate(770.000000, 507.000000)" sketch:type="MSShapeGroup">
                <path d="M189.995,48.3775 L177.1375,32.8375 C174.64,29.6925 170.85675,27.75 166.5,27.75 L55.5,27.75 C51.1525,27.75 47.36,29.6925 44.77,32.8375 L32.005,48.3775 C29.3225,51.5225 27.75,55.685 27.75,60.125 L27.75,175.75 C27.75,185.925 36.075,194.25 46.25,194.25 L175.75,194.25 C185.925,194.25 194.25,185.925 194.25,175.75 L194.25,60.125 C194.25,55.685 192.6775,51.5225 189.995,48.3775 L189.995,48.3775 Z" id="Shape" fill="#795548"></path>
                <path d="M47.36,46.25 L54.8525,37 L165.8525,37 L174.5475,46.25 L47.36,46.25 Z" id="Shape" fill="#5D4037"></path>
                <path d="M0,0 L222,0 L222,222 L0,222 L0,0 L0,0 Z" id="Shape"></path>
                <g id="ic_vpn_key_24px" transform="translate(56.202532, 56.764557)">
                    <g id="Capa_1">
                        <path d="M0,0 L108.470886,0 L108.470886,108.470886 L0,108.470886 L0,0 L0,0 Z" id="Shape"></path>
                        <path d="M57.1731962,45.1962025 C53.4671076,34.6654873 43.4335506,27.1177215 31.6373418,27.1177215 C16.6773987,27.1177215 4.51962025,39.2755 4.51962025,54.235443 L4.51962025,54.4162278 C4.61001266,69.2857785 16.7225949,81.3531646 31.6373418,81.3531646 C43.4335506,81.3531646 53.4671076,73.8053987 57.1731962,63.2746835 L76.8335443,63.2746835 L76.8335443,81.3531646 L94.9120253,81.3531646 L94.9120253,63.2746835 L103.951266,63.2746835 L103.951266,45.1962025 L57.1731962,45.1962025 L57.1731962,45.1962025 Z M31.6373418,63.2746835 C26.7109557,63.2746835 22.6884937,59.2974177 22.5981013,54.4162278 L22.5981013,54.235443 C22.5981013,49.2638608 26.6657595,45.1962025 31.6373418,45.1962025 C36.6089241,45.1962025 40.6765823,49.2638608 40.6765823,54.235443 L40.6765823,54.4162278 C40.5861899,59.2974177 36.5637278,63.2746835 31.6373418,63.2746835 L31.6373418,63.2746835 Z" id="Shape" fill="#FFD54F"></path>
                    </g>
                    <g id="Capa_2" transform="translate(4.519620, 27.117722)" fill="#FFB300">
                        <path d="M99.4316456,18.078481 L99.4316456,27.2985063 L36.156962,27.2985063 L36.156962,27.1177215 C36.156962,22.1461392 32.0893038,18.078481 27.1177215,18.078481 C22.1461392,18.078481 18.078481,22.1461392 18.078481,27.1177215 L18.078481,27.2985063 L0,27.2985063 L0,27.1177215 C0,12.1577785 12.1577785,0 27.1177215,0 C38.9139304,0 48.9474873,7.54776582 52.6535759,18.078481 L99.4316456,18.078481 L99.4316456,18.078481 Z" id="Shape"></path>
                    </g>
                </g>
            </g>
            <g id="ic_email_24px-+-ic_live_help_24px" transform="translate(51.000000, 0.000000)" sketch:type="MSShapeGroup">
                <g id="ic_email_24px" transform="translate(0.000000, 145.000000)">
                    <path d="M92.5,84.7916667 L17.8447917,38.133125 C20.558125,33.7702083 25.3372917,30.8333333 30.8333333,30.8333333 L154.166667,30.8333333 C159.655,30.8333333 164.457292,33.7625 167.19375,38.11 L92.5,84.7916667 L92.5,84.7916667 Z M92.5,100.208333 L15.4860417,52.0775 L15.4166667,138.75 C15.4166667,147.229167 22.3541667,154.166667 30.8333333,154.166667 L154.166667,154.166667 C162.645833,154.166667 169.583333,147.229167 169.583333,138.75 L169.583333,52.03125 L92.5,100.208333 L92.5,100.208333 Z" id="Shape" fill="#CFD8DC"></path>
                    <path d="M169.583333,52.03125 L169.583333,46.25 C169.583333,43.2591667 168.689167,40.4764583 167.19375,38.11 L92.5,84.7916667 L17.8447917,38.133125 C16.3802083,40.4995833 15.49375,43.266875 15.49375,46.25 L15.49375,52.0775 L92.5,100.208333 L169.583333,52.03125 L169.583333,52.03125 Z" id="Shape" fill="#90A4AE"></path>
                    <path d="M0,0 L185,0 L185,185 L0,185 L0,0 L0,0 Z" id="Shape"></path>
                </g>
                <g id="ic_live_help_24px">
                    <path d="M161.875,30.8333333 L161.875,138.75 C161.875,147.229167 154.9375,154.166667 146.458333,154.166667 L115.625,154.166667 L92.5,177.291667 L69.375,154.166667 L38.5416667,154.166667 C29.9854167,154.166667 23.125,147.229167 23.125,138.75 L23.125,30.8333333 C23.125,22.3541667 29.9854167,15.4166667 38.5416667,15.4166667 L146.458333,15.4166667 C154.9375,15.4166667 161.875,22.3541667 161.875,30.8333333 L161.875,30.8333333 Z" id="Shape" fill="#B0BEC5"></path>
                    <path d="M0,0 L185,0 L185,185 L0,185 L0,0 L0,0 Z" id="Shape"></path>
                    <path d="M161.875,30.8333333 L161.875,138.75 C161.875,147.229167 154.9375,154.166667 146.458333,154.166667 L115.625,154.166667 L92.5,177.291667 L92.5,15.4166667 L146.458333,15.4166667 C154.9375,15.4166667 161.875,22.3541667 161.875,30.8333333 L161.875,30.8333333 Z" id="Shape" opacity="0.5" fill="#90A4AE"></path>
                    <rect id="Rectangle-path" fill="#37474F" x="84.7916667" y="123.333333" width="15.4166667" height="15.4166667"></rect>
                    <path d="M116.164583,79.0104167 L109.227083,86.1020833 C103.677083,91.7291667 100.208333,96.3541667 100.208333,107.916667 L84.7916667,107.916667 L84.7916667,104.0625 C84.7916667,95.5833333 88.2604167,87.875 93.8104167,82.2479167 L103.36875,72.5354167 C106.213125,69.7604167 107.916667,65.90625 107.916667,61.6666667 C107.916667,53.1875 100.979167,46.25 92.5,46.25 C84.0208333,46.25 77.0833333,53.1875 77.0833333,61.6666667 L61.6666667,61.6666667 C61.6666667,44.63125 75.4645833,30.8333333 92.5,30.8333333 C109.535417,30.8333333 123.333333,44.63125 123.333333,61.6666667 C123.333333,68.45 120.566042,74.6166667 116.164583,79.0104167 L116.164583,79.0104167 Z" id="Shape" fill="#37474F"></path>
                </g>
            </g>
            <g id="ic_email_24px-+-ic_live_help_24px-copy-3" transform="translate(789.000000, 0.000000)" sketch:type="MSShapeGroup">
                <g id="ic_email_24px" transform="translate(0.000000, 145.000000)">
                    <path d="M92.5,84.7916667 L17.8447917,38.133125 C20.558125,33.7702083 25.3372917,30.8333333 30.8333333,30.8333333 L154.166667,30.8333333 C159.655,30.8333333 164.457292,33.7625 167.19375,38.11 L92.5,84.7916667 L92.5,84.7916667 Z M92.5,100.208333 L15.4860417,52.0775 L15.4166667,138.75 C15.4166667,147.229167 22.3541667,154.166667 30.8333333,154.166667 L154.166667,154.166667 C162.645833,154.166667 169.583333,147.229167 169.583333,138.75 L169.583333,52.03125 L92.5,100.208333 L92.5,100.208333 Z" id="Shape" fill="#CFD8DC"></path>
                    <path d="M169.583333,52.03125 L169.583333,46.25 C169.583333,43.2591667 168.689167,40.4764583 167.19375,38.11 L92.5,84.7916667 L17.8447917,38.133125 C16.3802083,40.4995833 15.49375,43.266875 15.49375,46.25 L15.49375,52.0775 L92.5,100.208333 L169.583333,52.03125 L169.583333,52.03125 Z" id="Shape" fill="#90A4AE"></path>
                    <path d="M0,0 L185,0 L185,185 L0,185 L0,0 L0,0 Z" id="Shape"></path>
                </g>
                <g id="ic_live_help_24px">
                    <path d="M161.875,30.8333333 L161.875,138.75 C161.875,147.229167 154.9375,154.166667 146.458333,154.166667 L115.625,154.166667 L92.5,177.291667 L69.375,154.166667 L38.5416667,154.166667 C29.9854167,154.166667 23.125,147.229167 23.125,138.75 L23.125,30.8333333 C23.125,22.3541667 29.9854167,15.4166667 38.5416667,15.4166667 L146.458333,15.4166667 C154.9375,15.4166667 161.875,22.3541667 161.875,30.8333333 L161.875,30.8333333 Z" id="Shape" fill="#B0BEC5"></path>
                    <path d="M0,0 L185,0 L185,185 L0,185 L0,0 L0,0 Z" id="Shape"></path>
                    <path d="M161.875,30.8333333 L161.875,138.75 C161.875,147.229167 154.9375,154.166667 146.458333,154.166667 L115.625,154.166667 L92.5,177.291667 L92.5,15.4166667 L146.458333,15.4166667 C154.9375,15.4166667 161.875,22.3541667 161.875,30.8333333 L161.875,30.8333333 Z" id="Shape" opacity="0.5" fill="#90A4AE"></path>
                    <rect id="Rectangle-path" fill="#37474F" x="84.7916667" y="123.333333" width="15.4166667" height="15.4166667"></rect>
                    <path d="M116.164583,79.0104167 L109.227083,86.1020833 C103.677083,91.7291667 100.208333,96.3541667 100.208333,107.916667 L84.7916667,107.916667 L84.7916667,104.0625 C84.7916667,95.5833333 88.2604167,87.875 93.8104167,82.2479167 L103.36875,72.5354167 C106.213125,69.7604167 107.916667,65.90625 107.916667,61.6666667 C107.916667,53.1875 100.979167,46.25 92.5,46.25 C84.0208333,46.25 77.0833333,53.1875 77.0833333,61.6666667 L61.6666667,61.6666667 C61.6666667,44.63125 75.4645833,30.8333333 92.5,30.8333333 C109.535417,30.8333333 123.333333,44.63125 123.333333,61.6666667 C123.333333,68.45 120.566042,74.6166667 116.164583,79.0104167 L116.164583,79.0104167 Z" id="Shape" fill="#37474F"></path>
                </g>
            </g>
            <g id="ic_email_24px-+-ic_live_help_24px-copy-2" transform="translate(543.000000, 0.000000)" sketch:type="MSShapeGroup">
                <g id="ic_email_24px" transform="translate(0.000000, 145.000000)">
                    <path d="M92.5,84.7916667 L17.8447917,38.133125 C20.558125,33.7702083 25.3372917,30.8333333 30.8333333,30.8333333 L154.166667,30.8333333 C159.655,30.8333333 164.457292,33.7625 167.19375,38.11 L92.5,84.7916667 L92.5,84.7916667 Z M92.5,100.208333 L15.4860417,52.0775 L15.4166667,138.75 C15.4166667,147.229167 22.3541667,154.166667 30.8333333,154.166667 L154.166667,154.166667 C162.645833,154.166667 169.583333,147.229167 169.583333,138.75 L169.583333,52.03125 L92.5,100.208333 L92.5,100.208333 Z" id="Shape" fill="#CFD8DC"></path>
                    <path d="M169.583333,52.03125 L169.583333,46.25 C169.583333,43.2591667 168.689167,40.4764583 167.19375,38.11 L92.5,84.7916667 L17.8447917,38.133125 C16.3802083,40.4995833 15.49375,43.266875 15.49375,46.25 L15.49375,52.0775 L92.5,100.208333 L169.583333,52.03125 L169.583333,52.03125 Z" id="Shape" fill="#90A4AE"></path>
                    <path d="M0,0 L185,0 L185,185 L0,185 L0,0 L0,0 Z" id="Shape"></path>
                </g>
                <g id="ic_live_help_24px">
                    <path d="M161.875,30.8333333 L161.875,138.75 C161.875,147.229167 154.9375,154.166667 146.458333,154.166667 L115.625,154.166667 L92.5,177.291667 L69.375,154.166667 L38.5416667,154.166667 C29.9854167,154.166667 23.125,147.229167 23.125,138.75 L23.125,30.8333333 C23.125,22.3541667 29.9854167,15.4166667 38.5416667,15.4166667 L146.458333,15.4166667 C154.9375,15.4166667 161.875,22.3541667 161.875,30.8333333 L161.875,30.8333333 Z" id="Shape" fill="#B0BEC5"></path>
                    <path d="M0,0 L185,0 L185,185 L0,185 L0,0 L0,0 Z" id="Shape"></path>
                    <path d="M161.875,30.8333333 L161.875,138.75 C161.875,147.229167 154.9375,154.166667 146.458333,154.166667 L115.625,154.166667 L92.5,177.291667 L92.5,15.4166667 L146.458333,15.4166667 C154.9375,15.4166667 161.875,22.3541667 161.875,30.8333333 L161.875,30.8333333 Z" id="Shape" opacity="0.5" fill="#90A4AE"></path>
                    <rect id="Rectangle-path" fill="#37474F" x="84.7916667" y="123.333333" width="15.4166667" height="15.4166667"></rect>
                    <path d="M116.164583,79.0104167 L109.227083,86.1020833 C103.677083,91.7291667 100.208333,96.3541667 100.208333,107.916667 L84.7916667,107.916667 L84.7916667,104.0625 C84.7916667,95.5833333 88.2604167,87.875 93.8104167,82.2479167 L103.36875,72.5354167 C106.213125,69.7604167 107.916667,65.90625 107.916667,61.6666667 C107.916667,53.1875 100.979167,46.25 92.5,46.25 C84.0208333,46.25 77.0833333,53.1875 77.0833333,61.6666667 L61.6666667,61.6666667 C61.6666667,44.63125 75.4645833,30.8333333 92.5,30.8333333 C109.535417,30.8333333 123.333333,44.63125 123.333333,61.6666667 C123.333333,68.45 120.566042,74.6166667 116.164583,79.0104167 L116.164583,79.0104167 Z" id="Shape" fill="#37474F"></path>
                </g>
            </g>
            <g id="ic_email_24px-+-ic_live_help_24px-copy-4" transform="translate(1281.000000, 0.000000)" sketch:type="MSShapeGroup">
                <g id="ic_email_24px" transform="translate(0.000000, 145.000000)">
                    <path d="M92.5,84.7916667 L17.8447917,38.133125 C20.558125,33.7702083 25.3372917,30.8333333 30.8333333,30.8333333 L154.166667,30.8333333 C159.655,30.8333333 164.457292,33.7625 167.19375,38.11 L92.5,84.7916667 L92.5,84.7916667 Z M92.5,100.208333 L15.4860417,52.0775 L15.4166667,138.75 C15.4166667,147.229167 22.3541667,154.166667 30.8333333,154.166667 L154.166667,154.166667 C162.645833,154.166667 169.583333,147.229167 169.583333,138.75 L169.583333,52.03125 L92.5,100.208333 L92.5,100.208333 Z" id="Shape" fill="#CFD8DC"></path>
                    <path d="M169.583333,52.03125 L169.583333,46.25 C169.583333,43.2591667 168.689167,40.4764583 167.19375,38.11 L92.5,84.7916667 L17.8447917,38.133125 C16.3802083,40.4995833 15.49375,43.266875 15.49375,46.25 L15.49375,52.0775 L92.5,100.208333 L169.583333,52.03125 L169.583333,52.03125 Z" id="Shape" fill="#90A4AE"></path>
                    <path d="M0,0 L185,0 L185,185 L0,185 L0,0 L0,0 Z" id="Shape"></path>
                </g>
                <g id="ic_live_help_24px">
                    <path d="M161.875,30.8333333 L161.875,138.75 C161.875,147.229167 154.9375,154.166667 146.458333,154.166667 L115.625,154.166667 L92.5,177.291667 L69.375,154.166667 L38.5416667,154.166667 C29.9854167,154.166667 23.125,147.229167 23.125,138.75 L23.125,30.8333333 C23.125,22.3541667 29.9854167,15.4166667 38.5416667,15.4166667 L146.458333,15.4166667 C154.9375,15.4166667 161.875,22.3541667 161.875,30.8333333 L161.875,30.8333333 Z" id="Shape" fill="#B0BEC5"></path>
                    <path d="M0,0 L185,0 L185,185 L0,185 L0,0 L0,0 Z" id="Shape"></path>
                    <path d="M161.875,30.8333333 L161.875,138.75 C161.875,147.229167 154.9375,154.166667 146.458333,154.166667 L115.625,154.166667 L92.5,177.291667 L92.5,15.4166667 L146.458333,15.4166667 C154.9375,15.4166667 161.875,22.3541667 161.875,30.8333333 L161.875,30.8333333 Z" id="Shape" opacity="0.5" fill="#90A4AE"></path>
                    <rect id="Rectangle-path" fill="#37474F" x="84.7916667" y="123.333333" width="15.4166667" height="15.4166667"></rect>
                    <path d="M116.164583,79.0104167 L109.227083,86.1020833 C103.677083,91.7291667 100.208333,96.3541667 100.208333,107.916667 L84.7916667,107.916667 L84.7916667,104.0625 C84.7916667,95.5833333 88.2604167,87.875 93.8104167,82.2479167 L103.36875,72.5354167 C106.213125,69.7604167 107.916667,65.90625 107.916667,61.6666667 C107.916667,53.1875 100.979167,46.25 92.5,46.25 C84.0208333,46.25 77.0833333,53.1875 77.0833333,61.6666667 L61.6666667,61.6666667 C61.6666667,44.63125 75.4645833,30.8333333 92.5,30.8333333 C109.535417,30.8333333 123.333333,44.63125 123.333333,61.6666667 C123.333333,68.45 120.566042,74.6166667 116.164583,79.0104167 L116.164583,79.0104167 Z" id="Shape" fill="#37474F"></path>
                </g>
            </g>
            <g id="ic_email_24px-+-ic_live_help_24px-copy-6" transform="translate(1527.000000, 0.000000)" sketch:type="MSShapeGroup">
                <g id="ic_email_24px" transform="translate(0.000000, 145.000000)">
                    <path d="M92.5,84.7916667 L17.8447917,38.133125 C20.558125,33.7702083 25.3372917,30.8333333 30.8333333,30.8333333 L154.166667,30.8333333 C159.655,30.8333333 164.457292,33.7625 167.19375,38.11 L92.5,84.7916667 L92.5,84.7916667 Z M92.5,100.208333 L15.4860417,52.0775 L15.4166667,138.75 C15.4166667,147.229167 22.3541667,154.166667 30.8333333,154.166667 L154.166667,154.166667 C162.645833,154.166667 169.583333,147.229167 169.583333,138.75 L169.583333,52.03125 L92.5,100.208333 L92.5,100.208333 Z" id="Shape" fill="#CFD8DC"></path>
                    <path d="M169.583333,52.03125 L169.583333,46.25 C169.583333,43.2591667 168.689167,40.4764583 167.19375,38.11 L92.5,84.7916667 L17.8447917,38.133125 C16.3802083,40.4995833 15.49375,43.266875 15.49375,46.25 L15.49375,52.0775 L92.5,100.208333 L169.583333,52.03125 L169.583333,52.03125 Z" id="Shape" fill="#90A4AE"></path>
                    <path d="M0,0 L185,0 L185,185 L0,185 L0,0 L0,0 Z" id="Shape"></path>
                </g>
                <g id="ic_live_help_24px">
                    <path d="M161.875,30.8333333 L161.875,138.75 C161.875,147.229167 154.9375,154.166667 146.458333,154.166667 L115.625,154.166667 L92.5,177.291667 L69.375,154.166667 L38.5416667,154.166667 C29.9854167,154.166667 23.125,147.229167 23.125,138.75 L23.125,30.8333333 C23.125,22.3541667 29.9854167,15.4166667 38.5416667,15.4166667 L146.458333,15.4166667 C154.9375,15.4166667 161.875,22.3541667 161.875,30.8333333 L161.875,30.8333333 Z" id="Shape" fill="#B0BEC5"></path>
                    <path d="M0,0 L185,0 L185,185 L0,185 L0,0 L0,0 Z" id="Shape"></path>
                    <path d="M161.875,30.8333333 L161.875,138.75 C161.875,147.229167 154.9375,154.166667 146.458333,154.166667 L115.625,154.166667 L92.5,177.291667 L92.5,15.4166667 L146.458333,15.4166667 C154.9375,15.4166667 161.875,22.3541667 161.875,30.8333333 L161.875,30.8333333 Z" id="Shape" opacity="0.5" fill="#90A4AE"></path>
                    <rect id="Rectangle-path" fill="#37474F" x="84.7916667" y="123.333333" width="15.4166667" height="15.4166667"></rect>
                    <path d="M116.164583,79.0104167 L109.227083,86.1020833 C103.677083,91.7291667 100.208333,96.3541667 100.208333,107.916667 L84.7916667,107.916667 L84.7916667,104.0625 C84.7916667,95.5833333 88.2604167,87.875 93.8104167,82.2479167 L103.36875,72.5354167 C106.213125,69.7604167 107.916667,65.90625 107.916667,61.6666667 C107.916667,53.1875 100.979167,46.25 92.5,46.25 C84.0208333,46.25 77.0833333,53.1875 77.0833333,61.6666667 L61.6666667,61.6666667 C61.6666667,44.63125 75.4645833,30.8333333 92.5,30.8333333 C109.535417,30.8333333 123.333333,44.63125 123.333333,61.6666667 C123.333333,68.45 120.566042,74.6166667 116.164583,79.0104167 L116.164583,79.0104167 Z" id="Shape" fill="#37474F"></path>
                </g>
            </g>
            <g id="ic_email_24px-+-ic_live_help_24px-copy" transform="translate(297.000000, 0.000000)" sketch:type="MSShapeGroup">
                <g id="ic_email_24px" transform="translate(0.000000, 145.000000)">
                    <path d="M92.5,84.7916667 L17.8447917,38.133125 C20.558125,33.7702083 25.3372917,30.8333333 30.8333333,30.8333333 L154.166667,30.8333333 C159.655,30.8333333 164.457292,33.7625 167.19375,38.11 L92.5,84.7916667 L92.5,84.7916667 Z M92.5,100.208333 L15.4860417,52.0775 L15.4166667,138.75 C15.4166667,147.229167 22.3541667,154.166667 30.8333333,154.166667 L154.166667,154.166667 C162.645833,154.166667 169.583333,147.229167 169.583333,138.75 L169.583333,52.03125 L92.5,100.208333 L92.5,100.208333 Z" id="Shape" fill="#CFD8DC"></path>
                    <path d="M169.583333,52.03125 L169.583333,46.25 C169.583333,43.2591667 168.689167,40.4764583 167.19375,38.11 L92.5,84.7916667 L17.8447917,38.133125 C16.3802083,40.4995833 15.49375,43.266875 15.49375,46.25 L15.49375,52.0775 L92.5,100.208333 L169.583333,52.03125 L169.583333,52.03125 Z" id="Shape" fill="#90A4AE"></path>
                    <path d="M0,0 L185,0 L185,185 L0,185 L0,0 L0,0 Z" id="Shape"></path>
                </g>
                <g id="ic_live_help_24px">
                    <path d="M161.875,30.8333333 L161.875,138.75 C161.875,147.229167 154.9375,154.166667 146.458333,154.166667 L115.625,154.166667 L92.5,177.291667 L69.375,154.166667 L38.5416667,154.166667 C29.9854167,154.166667 23.125,147.229167 23.125,138.75 L23.125,30.8333333 C23.125,22.3541667 29.9854167,15.4166667 38.5416667,15.4166667 L146.458333,15.4166667 C154.9375,15.4166667 161.875,22.3541667 161.875,30.8333333 L161.875,30.8333333 Z" id="Shape" fill="#B0BEC5"></path>
                    <path d="M0,0 L185,0 L185,185 L0,185 L0,0 L0,0 Z" id="Shape"></path>
                    <path d="M161.875,30.8333333 L161.875,138.75 C161.875,147.229167 154.9375,154.166667 146.458333,154.166667 L115.625,154.166667 L92.5,177.291667 L92.5,15.4166667 L146.458333,15.4166667 C154.9375,15.4166667 161.875,22.3541667 161.875,30.8333333 L161.875,30.8333333 Z" id="Shape" opacity="0.5" fill="#90A4AE"></path>
                    <rect id="Rectangle-path" fill="#37474F" x="84.7916667" y="123.333333" width="15.4166667" height="15.4166667"></rect>
                    <path d="M116.164583,79.0104167 L109.227083,86.1020833 C103.677083,91.7291667 100.208333,96.3541667 100.208333,107.916667 L84.7916667,107.916667 L84.7916667,104.0625 C84.7916667,95.5833333 88.2604167,87.875 93.8104167,82.2479167 L103.36875,72.5354167 C106.213125,69.7604167 107.916667,65.90625 107.916667,61.6666667 C107.916667,53.1875 100.979167,46.25 92.5,46.25 C84.0208333,46.25 77.0833333,53.1875 77.0833333,61.6666667 L61.6666667,61.6666667 C61.6666667,44.63125 75.4645833,30.8333333 92.5,30.8333333 C109.535417,30.8333333 123.333333,44.63125 123.333333,61.6666667 C123.333333,68.45 120.566042,74.6166667 116.164583,79.0104167 L116.164583,79.0104167 Z" id="Shape" fill="#37474F"></path>
                </g>
            </g>
            <g id="ic_email_24px-+-ic_live_help_24px-copy-5" transform="translate(1035.000000, 0.000000)" sketch:type="MSShapeGroup">
                <g id="ic_email_24px" transform="translate(0.000000, 145.000000)">
                    <path d="M92.5,84.7916667 L17.8447917,38.133125 C20.558125,33.7702083 25.3372917,30.8333333 30.8333333,30.8333333 L154.166667,30.8333333 C159.655,30.8333333 164.457292,33.7625 167.19375,38.11 L92.5,84.7916667 L92.5,84.7916667 Z M92.5,100.208333 L15.4860417,52.0775 L15.4166667,138.75 C15.4166667,147.229167 22.3541667,154.166667 30.8333333,154.166667 L154.166667,154.166667 C162.645833,154.166667 169.583333,147.229167 169.583333,138.75 L169.583333,52.03125 L92.5,100.208333 L92.5,100.208333 Z" id="Shape" fill="#CFD8DC"></path>
                    <path d="M169.583333,52.03125 L169.583333,46.25 C169.583333,43.2591667 168.689167,40.4764583 167.19375,38.11 L92.5,84.7916667 L17.8447917,38.133125 C16.3802083,40.4995833 15.49375,43.266875 15.49375,46.25 L15.49375,52.0775 L92.5,100.208333 L169.583333,52.03125 L169.583333,52.03125 Z" id="Shape" fill="#90A4AE"></path>
                    <path d="M0,0 L185,0 L185,185 L0,185 L0,0 L0,0 Z" id="Shape"></path>
                </g>
                <g id="ic_live_help_24px">
                    <path d="M161.875,30.8333333 L161.875,138.75 C161.875,147.229167 154.9375,154.166667 146.458333,154.166667 L115.625,154.166667 L92.5,177.291667 L69.375,154.166667 L38.5416667,154.166667 C29.9854167,154.166667 23.125,147.229167 23.125,138.75 L23.125,30.8333333 C23.125,22.3541667 29.9854167,15.4166667 38.5416667,15.4166667 L146.458333,15.4166667 C154.9375,15.4166667 161.875,22.3541667 161.875,30.8333333 L161.875,30.8333333 Z" id="Shape" fill="#B0BEC5"></path>
                    <path d="M0,0 L185,0 L185,185 L0,185 L0,0 L0,0 Z" id="Shape"></path>
                    <path d="M161.875,30.8333333 L161.875,138.75 C161.875,147.229167 154.9375,154.166667 146.458333,154.166667 L115.625,154.166667 L92.5,177.291667 L92.5,15.4166667 L146.458333,15.4166667 C154.9375,15.4166667 161.875,22.3541667 161.875,30.8333333 L161.875,30.8333333 Z" id="Shape" opacity="0.5" fill="#90A4AE"></path>
                    <rect id="Rectangle-path" fill="#37474F" x="84.7916667" y="123.333333" width="15.4166667" height="15.4166667"></rect>
                    <path d="M116.164583,79.0104167 L109.227083,86.1020833 C103.677083,91.7291667 100.208333,96.3541667 100.208333,107.916667 L84.7916667,107.916667 L84.7916667,104.0625 C84.7916667,95.5833333 88.2604167,87.875 93.8104167,82.2479167 L103.36875,72.5354167 C106.213125,69.7604167 107.916667,65.90625 107.916667,61.6666667 C107.916667,53.1875 100.979167,46.25 92.5,46.25 C84.0208333,46.25 77.0833333,53.1875 77.0833333,61.6666667 L61.6666667,61.6666667 C61.6666667,44.63125 75.4645833,30.8333333 92.5,30.8333333 C109.535417,30.8333333 123.333333,44.63125 123.333333,61.6666667 C123.333333,68.45 120.566042,74.6166667 116.164583,79.0104167 L116.164583,79.0104167 Z" id="Shape" fill="#37474F"></path>
                </g>
            </g>
        </g>
    </g>
</svg>