<?xml version="1.0" encoding="UTF-8" standalone="no"?>
<svg width="300px" height="137px" viewBox="0 0 300 137" version="1.1" xmlns="http://www.w3.org/2000/svg" xmlns:xlink="http://www.w3.org/1999/xlink" xmlns:sketch="http://www.bohemiancoding.com/sketch/ns">
    <!-- Generator: Sketch 3.3.2 (12043) - http://www.bohemiancoding.com/sketch -->
    <title>Group</title>
    <desc>Created with Sketch.</desc>
    <defs></defs>
    <g id="Page-1" stroke="none" stroke-width="1" fill="none" fill-rule="evenodd" sketch:type="MSPage">
        <g id="Group" sketch:type="MSLayerGroup">
            <path d="M52.9852453,0.0933002974 L1.91702258,0.0933002974 L0.117167765,5.94154545 L23.5644006,5.94154545 L23.5644006,64.4819149 C23.5644006,67.5632956 25.4185077,69.1424758 28.9808272,69.1424758 L32.0717388,69.1424758 L32.0717388,5.94154545 L51.1780591,5.94154545 L52.9852453,0.0933002974 L52.9852453,0.0933002974 Z M214.118219,14.6211712 C212.061765,14.6211712 210.354286,15.3073887 209.933465,16.3359819 L192.946648,61.5464286 L196.107207,61.5464286 C199.528764,61.5464286 201.047094,61.2663698 202.071288,58.4525845 L205.870412,47.8272095 L216.109423,47.8272095 L214.602823,42.7626893 L207.514108,42.7626893 L213.844758,24.8939066 L225.285383,58.4525845 C226.238463,61.2663698 227.888024,61.5464286 231.581576,61.5464286 L235.562517,61.5464286 L218.298574,16.3359819 C217.889483,15.3073887 216.036842,14.6211712 214.118219,14.6211712 L214.118219,14.6211712 Z M282.652731,16.3359819 C282.244373,15.3073887 280.383668,14.6211712 278.460646,14.6211712 C276.412257,14.6211712 274.700379,15.3073887 274.289821,16.3359819 L257.300805,61.5464286 L260.4511,61.5464286 C263.873391,61.5464286 265.385855,61.2663698 266.413715,58.4525845 L270.215038,47.8272095 L280.46358,47.8272095 L278.951115,42.7626893 L271.8624,42.7626893 L278.202581,24.8939066 L289.631476,58.4525845 C290.586755,61.2663698 292.240715,61.5464286 295.932067,61.5464286 L299.910809,61.5464286 L282.652731,16.3359819 L282.652731,16.3359819 Z M132.65481,14.6211712 C130.58956,14.6211712 128.88428,15.3073887 128.475188,16.3359819 L112.137932,59.8213539 L99.9810306,41.3323362 C106.346872,40.2370274 110.110804,36.8154704 110.110804,31.0691315 L110.110804,27.0134098 C110.110804,18.6592976 102.378393,15.2450719 92.0975933,15.2450719 L77.7163501,15.2450719 L77.7163501,56.4716445 L59.1760127,56.4716445 C51.8424291,56.4716445 50.2038647,54.8352796 50.2038647,47.2920184 L50.2038647,39.1431849 L63.9729373,39.1431849 L65.4773374,34.0090166 L50.2038647,34.0090166 L50.2038647,20.3719089 L70.4054938,20.3719089 L71.9846739,15.2450719 L41.7757055,15.2450719 L41.7757055,47.2920184 C41.7757055,58.0508247 44.3138307,61.5464286 58.9678014,61.5464286 L86.1408436,61.4005341 L86.1408436,20.3719089 L92.0975933,20.3719089 C98.6100618,20.3719089 101.899654,22.6307084 101.899654,27.0823248 L101.899654,31.0691315 C101.899654,35.5837979 97.7867474,37.0141509 92.784544,37.0141509 L89.0132799,37.0141509 L101.758891,58.8000921 C103.191444,61.3286865 103.880594,61.5464286 107.236902,61.5464286 L114.632069,61.5464286 C118.055825,61.5464286 119.570489,61.2663698 120.604214,58.4525845 L124.401871,47.8272095 L134.643082,47.8272095 L133.135749,42.7626893 L126.052899,42.7626893 L132.379884,24.8939066 L143.808045,58.4525845 C144.772855,61.2663698 146.41142,61.5464286 150.124766,61.5464286 L154.096177,61.5464286 L136.827101,16.3359819 C136.423142,15.3073887 134.571234,14.6211712 132.65481,14.6211712 L132.65481,14.6211712 Z M184.603532,42.5046245 C184.603532,51.8785323 181.511888,56.4716445 173.229623,56.4716445 L165.687828,56.4716445 L165.687828,20.3719089 L172.963494,20.3719089 C181.511888,20.3719089 184.603532,25.3697135 184.603532,34.7575509 L184.603532,42.5046245 L184.603532,42.5046245 Z M193.017029,34.6886359 C193.017029,21.6783616 186.385792,15.2450719 172.963494,15.2450719 L157.274332,15.2450719 L157.274332,56.8858677 C157.274332,59.9621165 158.984744,61.5464286 162.538999,61.5464286 L172.963494,61.5464286 L174.701765,61.5090386 C187.197376,61.0581585 193.017029,55.542025 193.017029,42.5046245 L193.017029,34.6886359 L193.017029,34.6886359 Z M266.838202,15.2802626 L228.390224,15.2802626 L226.816909,20.4136978 L242.578652,20.4136978 L242.578652,56.9430525 C242.578652,60.0339641 244.435692,61.6160768 247.992146,61.6160768 L251.08599,61.6160768 L251.08599,20.4136978 L265.333069,20.4136978 L266.838202,15.2802626 L266.838202,15.2802626 Z" id="Shape" fill="#ED891C" sketch:type="MSShapeGroup"></path>
            <path d="M72.7031496,110.086057 L77.3167896,110.086057 C79.574856,110.086057 81.8343886,110.12418 84.0917217,110.065529 C84.8659159,110.045734 85.3233943,110.295735 85.5088783,111.011278 C85.9744212,112.806 86.4172368,114.606588 86.9289674,116.643247 L85.4245674,116.643247 C81.0785229,116.64398 76.7317452,116.675505 72.3857007,116.622719 C71.2683977,116.609523 70.5785145,116.811869 70.2361388,118.032544 C69.6686897,120.058206 68.9194222,122.034014 68.2288058,124.024484 C67.1899487,127.020821 66.3314436,130.100736 65.0154602,132.970973 C64.220005,134.706311 62.8241094,136.230506 60.4626706,136.106606 C58.7309976,136.015696 56.9912602,136.08901 55.1796752,136.08901 C55.1796752,135.82728 55.1342206,135.65206 55.1862734,135.51423 C56.2573886,132.669653 57.3409672,129.830208 58.4186807,126.988563 C60.1701484,122.373457 61.9186835,117.757617 63.669418,113.142511 C65.0616479,109.47242 66.4912678,105.814792 67.8402425,102.128573 C69.4355517,97.7715309 70.9179575,93.3734336 72.5330615,89.0237233 C73.7075492,85.8587648 75.0169344,82.7443928 76.2676686,79.6072935 C76.3607771,79.3719561 76.5103374,79.1461495 76.5462612,78.9027475 C76.836584,76.9335377 77.9766142,75.7414547 79.9164985,75.478258 C82.1063829,75.1806038 84.3138627,75.0156476 86.4377647,75.949666 C87.8989095,76.5926284 88.2464172,77.9430693 88.7229571,79.2612522 C90.0404069,82.909349 91.4003786,86.5420498 92.7552184,90.1762169 C93.6987676,92.7048113 94.6467155,95.2312063 95.6203233,97.7480705 C97.1415856,101.683558 98.7185663,105.597784 100.212702,109.543534 C101.692909,113.453362 103.071209,117.402045 104.549216,121.312605 C105.72517,124.422579 106.96564,127.509091 108.236902,130.581674 C108.349073,130.852936 108.905525,131.090473 109.256698,131.091206 C113.986174,131.102203 118.716383,131.122731 123.443659,131.022291 C125.565362,130.977569 127.445862,130.025222 128.780907,128.418916 C130.644545,126.176246 130.73912,122.773017 127.838091,120.687972 C125.752312,119.189437 123.472985,117.958497 121.272103,116.619786 C118.708318,115.060401 116.119607,113.541338 113.575616,111.950428 C112.430454,111.234885 111.275028,110.489283 110.283092,109.583857 C105.772091,105.465819 105.816079,99.6769577 109.195114,95.1256344 C110.006698,94.0332581 111.589544,93.4438149 112.90846,92.8118495 C115.610809,91.516394 118.583685,91.4049569 121.494977,91.2847222 C125.19586,91.1322294 128.907007,91.2392676 132.614488,91.2392676 C132.780177,91.2392676 132.945133,91.2927867 133.361556,91.3639012 C133.091761,92.2737259 132.885749,93.1512926 132.573432,93.9885367 C131.696599,96.3375122 131.67827,96.2847262 129.123283,96.3433773 C126.18853,96.4100929 123.253043,96.5266619 120.321956,96.6989494 C117.261836,96.8793015 114.75377,99.7817965 115.810955,102.397634 C116.338082,103.699688 117.357144,105.034 118.517702,105.804529 C121.651869,107.882976 125.003045,109.630778 128.225921,111.578727 C131.07783,113.303068 134.242788,114.682835 136.387218,117.300872 C137.519917,118.683571 138.354229,120.525948 138.705402,122.284014 C139.249391,125.012755 138.891619,127.822875 137.676075,130.385193 C136.658479,132.52889 134.781645,133.724639 132.585895,134.539156 C129.5595,135.661591 126.475187,136.174054 123.237647,136.127133 C116.975179,136.036224 110.711245,136.110271 104.44731,136.078746 C101.87546,136.06555 100.313142,134.600739 99.505957,132.14106 C98.4824957,129.022289 97.1731105,125.998093 96.0404117,122.913047 C95.1371851,120.452634 94.3468619,117.950433 93.4473011,115.488554 C92.4648956,112.801602 91.3769182,110.152039 90.4047767,107.461421 C89.5125472,104.995144 88.7346873,102.487077 87.8666515,100.011269 C86.862985,97.1483633 85.819729,94.2986543 84.7845376,91.447479 C84.0924549,89.5427853 83.3945071,87.6402912 82.6708995,85.7473278 C82.5667938,85.4753334 82.3043303,85.2634564 82.1144474,85.0237201 C81.9223652,85.2700547 81.651104,85.4885299 81.5513971,85.7678556 C80.8666459,87.6784144 80.2486102,89.6138998 79.5513955,91.5200597 C78.2178168,95.1696227 76.831452,98.799391 75.4971401,102.448221 C74.929691,104.000275 74.4597492,105.58752 73.9062297,107.144706 C73.5887808,108.036935 73.1914198,108.900572 72.7031496,110.086057" id="Shape" fill="#841B11" sketch:type="MSShapeGroup"></path>
            <path d="M232.275858,116.955564 C236.460612,123.246625 240.635835,129.523023 244.885106,135.910858 C244.512671,136.006166 244.286131,136.113937 244.058859,136.113937 C241.629971,136.117603 239.198884,136.16379 236.775128,136.055286 C236.146096,136.027427 235.363104,135.64986 234.959144,135.171854 C234.064716,134.111736 233.319114,132.915254 232.596239,131.723904 C230.690079,128.577274 228.81911,125.40865 226.951074,122.239292 C225.089635,119.080932 223.249458,115.910108 221.32277,112.613185 C221.669544,112.576528 221.976729,112.545736 222.283181,112.510546 C224.718667,112.234886 227.158552,111.997349 229.587439,111.672568 C232.093306,111.336791 233.516328,109.58679 233.769994,107.341187 C234.022194,105.115378 233.86017,102.729746 233.315448,100.555991 C232.715741,98.1622937 230.553716,96.9958705 228.222336,96.7583336 C225.350632,96.4650783 222.440073,96.55892 219.546376,96.4694771 C218.833765,96.4482161 218.525114,96.7649319 218.552973,97.4606802 C218.565436,97.7583344 218.555172,98.0567218 218.555172,98.3551091 C218.554439,110.456292 218.539043,122.556741 218.578633,134.657191 C218.582299,135.765696 218.326433,136.107339 217.176139,136.102207 C207.419533,136.056752 197.662194,136.06335 187.905588,136.083145 C184.744295,136.089743 181.863794,135.111004 179.261153,133.457776 C178.37992,132.898392 177.769949,131.741499 177.305139,130.733434 C176.283144,128.51569 175.829332,126.134457 175.828599,123.684308 C175.822734,113.330194 175.832264,102.976814 175.811003,92.6226998 C175.809537,91.701878 175.988423,91.2084758 177.066869,91.2121415 C185.886525,91.2414671 194.70618,91.2268043 203.525835,91.2341357 C203.805894,91.2341357 204.085953,91.3235786 204.596217,91.410822 C204.154135,92.9584772 203.805161,94.4320854 203.278034,95.8389781 C203.154867,96.1666909 202.426127,96.4408847 201.973781,96.4445504 C196.64753,96.4863393 191.322013,96.4709434 185.995762,96.4731428 C184.297081,96.4738759 184.294881,96.4775416 184.293415,98.1549623 C184.291949,101.435757 184.330072,104.717284 184.272887,107.996612 C184.253092,109.115382 184.617462,109.466555 185.742096,109.447493 C189.448111,109.384443 193.155592,109.424766 196.86234,109.424766 L198.370406,109.424766 C197.867473,111.157172 197.458381,112.712892 196.926856,114.225356 C196.853542,114.435034 196.174656,114.51128 195.775096,114.514213 C192.409257,114.53694 189.042685,114.558201 185.67758,114.510547 C184.659984,114.496618 184.237696,114.748084 184.270688,115.862454 C184.358664,118.885184 184.36013,121.910846 184.340336,124.935776 C184.328605,126.830938 184.868928,128.547949 186.356466,129.680647 C187.275089,130.380061 188.547084,130.96144 189.673918,130.986367 C196.14753,131.129329 202.624808,131.080209 209.100619,131.124197 C210.03977,131.130062 210.096955,130.613199 210.092556,129.893991 C210.074227,126.869062 210.086691,123.844132 210.086691,120.81847 C210.086691,111.487818 210.105752,102.156432 210.06323,92.825046 C210.058098,91.6204996 210.377747,91.1842823 211.638011,91.2033439 C216.110889,91.2693263 220.585233,91.225338 225.058843,91.2297368 C229.147556,91.2341357 233.106504,91.9504119 236.720876,93.8924956 C239.48774,95.3793003 241.472346,97.6337009 241.651965,100.947487 C241.786863,103.443823 241.755338,105.957754 241.647566,108.457756 C241.510469,111.649108 239.567653,113.666705 236.885832,115.030342 C235.472341,115.749551 233.955478,116.262748 232.275858,116.955564" id="Shape" fill="#841B11" sketch:type="MSShapeGroup"></path>
            <path d="M172.736954,91.1864817 C172.280942,92.9210872 171.924637,94.4702086 171.424636,95.970943 C171.346924,96.204081 170.610119,96.3133186 170.176835,96.3162512 C166.854251,96.3448436 163.529469,96.3785679 160.207618,96.3067204 C159.063922,96.2817937 158.764069,96.6549611 158.767001,97.761267 C158.799993,110.07506 158.772867,122.388853 158.81099,134.701912 C158.814655,135.797221 158.591781,136.272295 157.41656,136.141063 C156.489874,136.036957 155.543392,136.127867 154.606441,136.097808 C152.203946,136.020095 150.699546,134.466575 150.69808,132.043552 C150.692215,120.752488 150.695147,109.46069 150.694414,98.1696251 C150.694414,96.3331134 150.692215,96.3323802 148.921686,96.3316471 C145.25746,96.3316471 141.592501,96.2986559 137.929008,96.3543744 C136.903348,96.3697703 136.738391,95.9555471 136.975928,95.1263675 C137.289712,94.0288593 137.525782,92.8917616 137.995724,91.8631684 C138.162879,91.4987986 138.918012,91.2172735 139.407015,91.2136078 C145.201008,91.1696195 150.995734,91.1857485 156.79046,91.1857485 C161.605713,91.1857485 166.420233,91.1864817 171.234753,91.1864817 L172.736954,91.1864817" id="Shape" fill="#841B11" sketch:type="MSShapeGroup"></path>
        </g>
    </g>
</svg>