<?xml version="1.0" encoding="utf-8"?>
<!-- Generator: Adobe Illustrator 18.0.0, SVG Export Plug-In . SVG Version: 6.00 Build 0)  -->
<!DOCTYPE svg PUBLIC "-//W3C//DTD SVG 1.1//EN" "http://www.w3.org/Graphics/SVG/1.1/DTD/svg11.dtd">
<svg version="1.1" id="Layer_1" xmlns="http://www.w3.org/2000/svg" xmlns:xlink="http://www.w3.org/1999/xlink" x="0px" y="0px"
	 viewBox="0 0 100 100" enable-background="new 0 0 100 100" xml:space="preserve">
<g>
	<g>
		<g>
			<path fill="#FFFFFF" d="M69.7,94.5c-0.7,0-1.5-0.1-2.4-0.3c-5.6-0.6-15.9-4-15.3-12.8c0-0.2-0.1-0.5-0.3-0.7
				c-2.5-1.9-5.5-4.8-5.9-7.2c0-0.1,0-0.3,0-0.4c0-1.5-0.6-8.8-10.9-10.4c-0.4-0.1-0.7,0.1-0.9,0.4l-2.5,4.3
				c-0.1,0.1-0.1,0.1-0.1,0.1c-0.1,1.1-1,2.3-3.2,2.3c-1.5,0-3.5-0.6-6.1-1.7c-2-0.4-5.8-2.5-6.6-7.6c-0.1-0.4,0-0.8,0-1.2
				c0.1-0.5,0.3-3.5-5.9-8c-0.2-0.1-0.3-0.3-0.4-0.4l-4.2-4.8c-0.7-0.8-0.9-2-0.5-3c0.5-1,1.5-1.7,2.6-1.7l17.7,0.1l0,0
				c0.2,0,0.4-0.1,0.6-0.2s0.2-0.4,0.2-0.6V8.4c0-1.6,1.3-2.8,2.8-2.8h18.3c1.6,0,2.8,1.3,2.8,2.8v15.2c0,0.5,0.4,0.8,0.8,0.8
				c0.5,0,1.1-0.2,1.7-0.4c0.7-0.2,1.5-0.4,2.2-0.4c1.5,0,2.1,0.9,2.3,1.5c0.1,0.3,0.5,0.5,0.9,0.4c2.7-0.8,5-0.4,6.5,1.1
				c0.1,0.1,0.1,0.1,0.1,0.1l2.4,1c0.2,0.1,0.4,0.1,0.6,0l3.4-1.1c0.9-0.3,1.9-0.1,2.6,0.5l1.2,1c0.3,0.2,0.6,0.2,0.9,0.1l3-2.4
				c0,0,0.1-0.1,0.1-0.1c1.2-0.7,3-0.4,3.8,0.8c1,1.4,2.7,3.2,5,3.7c1.3,0.3,2.3,1.4,2.3,2.8v6.7c0,0.3,0.1,0.5,0.4,0.7l1.4,0.9
				c0.8,0.5,1.3,1.4,1.3,2.4v3c0,0.3,0.1,0.6,0.4,0.7l1.2,0.8c1.2,0.8,1.6,2.3,1.1,3.5l-1.2,2.7c-0.1,0.1-0.1,0.3-0.1,0.4l0.2,4.5
				c0.1,1.3-0.7,2.4-1.9,2.8l-5.7,2c-0.2,0.1-0.4,0.2-0.5,0.4l-0.2,0.4c-1.3,2.4-4.4,8-11.2,9.7c-0.1,0-0.1,0-0.2,0.1
				c-1,0.6-5.7,3.7-3.1,11.5c0,0.1,0,0.1,0.1,0.2c0.8,1.3,2.4,4.7,1.2,6.8C72.6,93.6,71.7,94.5,69.7,94.5z M34.8,60.7
				c0.1,0,0.3,0,0.4,0C47.3,62.5,47.8,72,47.8,73.1c0,0,0,0.1,0,0.1c0.2,1.4,2.2,3.6,5.2,6c0.7,0.6,1.1,1.5,1.1,2.4
				c-0.6,9.1,13.4,10.7,13.5,10.7c0,0,0.1,0,0.1,0c1.9,0.4,3.2,0.3,3.6-0.3c0.5-0.9-0.3-3.1-1.2-4.8c-0.1-0.2-0.2-0.3-0.2-0.5
				c-3.1-9.3,2.8-13.2,4-13.9c0.2-0.1,0.4-0.2,0.7-0.3c6-1.5,8.8-6.6,9.9-8.8l0.2-0.5c0.3-0.6,0.9-1.1,1.5-1.3l5.7-2
				c0.4-0.1,0.6-0.5,0.6-0.8l-0.2-4.5c0-0.4,0.1-0.9,0.2-1.3l1.2-2.7c0.2-0.4,0-0.8-0.3-1l-1.2-0.8c-0.8-0.5-1.3-1.4-1.3-2.4v-3
				c0-0.3-0.1-0.5-0.4-0.7l-1.4-0.9c-0.8-0.5-1.3-1.4-1.3-2.4v-6.7c0-0.4-0.3-0.7-0.6-0.8c-3-0.6-5.1-2.8-6.3-4.5
				c-0.2-0.3-0.7-0.5-1.1-0.3l-3,2.4c0,0-0.1,0.1-0.1,0.1c-1,0.6-2.3,0.5-3.2-0.2l-1.2-1c-0.2-0.2-0.5-0.2-0.8-0.1l-3.4,1.1
				c-0.6,0.2-1.3,0.2-2-0.1l-2.4-1c-0.3-0.1-0.5-0.3-0.8-0.5c-1-1-2.6-1.2-4.6-0.6c-1.3,0.4-2.8-0.3-3.3-1.6
				c-0.1-0.2-0.1-0.2-0.5-0.2c-0.4,0-1.1,0.2-1.7,0.3c-0.7,0.2-1.5,0.4-2.2,0.4c0,0,0,0,0,0c-1.6,0-2.9-1.3-2.9-2.8V8.4
				c0-0.5-0.4-0.8-0.8-0.8H28.6c-0.5,0-0.8,0.4-0.8,0.8v32.3c0,0.8-0.3,1.5-0.8,2c-0.5,0.5-1.3,0.8-2,0.8l0,0L7.2,43.4
				c-0.5,0-0.7,0.4-0.8,0.5s-0.2,0.5,0.1,0.9l4.2,4.8c0,0,0.1,0.1,0.1,0.1c6.7,5,6.9,8.6,6.7,10c0,0.2,0,0.4,0,0.6
				c0.8,5,5,5.9,5.1,6c0.1,0,0.1,0,0.2,0.1c2.9,1.3,4.5,1.5,5.4,1.5c0.4,0,1.2-0.1,1.2-0.5c0-0.3,0.1-0.6,0.3-0.9l2.5-4.3
				C32.8,61.2,33.8,60.7,34.8,60.7z"/>
		</g>
	</g>
	<g>
		<g>
			<path fill="#FFFFFF" d="M65.5,63.3c-0.3,0-0.6-0.1-0.8-0.3c-0.1-0.1-0.2-0.2-0.4-0.4c-2.4-2.3-5.3-5.1-6.1-6.8
				c-0.5-1.2-0.5-2.4-0.1-3.5c0.4-1.1,1.3-2,2.4-2.5c1-0.5,2.1-0.6,3.2-0.2c0.6,0.2,1.2,0.5,1.7,1c0.5-0.5,1.1-0.8,1.7-1
				c1.1-0.3,2.2-0.2,3.2,0.2c1.1,0.5,2,1.4,2.4,2.5c0.4,1.1,0.4,2.4-0.1,3.5c-0.7,1.7-3.6,4.5-6.1,6.8c-0.2,0.2-0.3,0.3-0.4,0.4
				C66.1,63.2,65.8,63.3,65.5,63.3z M62.5,51.4c-0.4,0-0.7,0.1-1.1,0.2c-0.7,0.3-1.2,0.8-1.4,1.4c-0.2,0.6-0.2,1.3,0.1,2
				c0.4,1,2.2,3,5.4,5.9c3.1-3,5-5,5.4-5.9c0.3-0.7,0.3-1.4,0.1-2c-0.2-0.6-0.7-1.1-1.4-1.4c-0.6-0.3-1.2-0.3-1.8-0.1
				c-0.5,0.1-1,0.6-1.4,1.2c-0.2,0.3-0.5,0.4-0.8,0.4l0,0c-0.3,0-0.6-0.2-0.8-0.4c-0.4-0.6-0.9-1-1.4-1.2
				C63,51.4,62.8,51.4,62.5,51.4z"/>
		</g>
	</g>
	<g>
		<g>
			<path fill="#FFFFFF" d="M35,17h-8c-0.6,0-1-0.4-1-1s0.4-1,1-1h8c0.6,0,1,0.4,1,1S35.6,17,35,17z"/>
		</g>
	</g>
	<g>
		<g>
			<path fill="#FFFFFF" d="M31,35h-4c-0.6,0-1-0.4-1-1s0.4-1,1-1h4c0.6,0,1,0.4,1,1S31.6,35,31,35z"/>
		</g>
	</g>
	<g>
		<g>
			<path fill="#FFFFFF" d="M39,35h-4c-0.6,0-1-0.4-1-1s0.4-1,1-1h4c0.6,0,1,0.4,1,1S39.6,35,39,35z"/>
		</g>
	</g>
	<g>
		<g>
			<path fill="#FFFFFF" d="M41,22H27c-0.6,0-1-0.4-1-1s0.4-1,1-1h14c0.6,0,1,0.4,1,1S41.6,22,41,22z"/>
		</g>
	</g>
	<g>
		<g>
			<path fill="#FFFFFF" d="M89,39h-8c-0.6,0-1-0.4-1-1s0.4-1,1-1h8c0.6,0,1,0.4,1,1S89.6,39,89,39z"/>
		</g>
	</g>
	<g>
		<g>
			<path fill="#FFFFFF" d="M77,39h-4c-0.6,0-1-0.4-1-1s0.4-1,1-1h4c0.6,0,1,0.4,1,1S77.6,39,77,39z"/>
		</g>
	</g>
	<g>
		<g>
			<path fill="#FFFFFF" d="M22,52H11c-0.6,0-1-0.4-1-1c0-0.6,0.4-1,1-1h11c0.6,0,1,0.4,1,1C23,51.6,22.6,52,22,52z"/>
		</g>
	</g>
	<g>
		<g>
			<path fill="#FFFFFF" d="M30,52h-4c-0.6,0-1-0.4-1-1c0-0.6,0.4-1,1-1h4c0.6,0,1,0.4,1,1C31,51.6,30.6,52,30,52z"/>
		</g>
	</g>
	<g>
		<g>
			<path fill="#FFFFFF" d="M21,58h-4c-0.6,0-1-0.4-1-1s0.4-1,1-1h4c0.6,0,1,0.4,1,1S21.6,58,21,58z"/>
		</g>
	</g>
	<g>
		<g>
			<path fill="#FFFFFF" d="M93,59H82c-0.6,0-1-0.4-1-1s0.4-1,1-1h11c0.6,0,1,0.4,1,1S93.6,59,93,59z"/>
		</g>
	</g>
	<g>
		<g>
			<path fill="#FFFFFF" d="M53,75h-5c-0.6,0-1-0.4-1-1s0.4-1,1-1h5c0.6,0,1,0.4,1,1S53.6,75,53,75z"/>
		</g>
	</g>
	<g>
		<g>
			<path fill="#FFFFFF" d="M60,75h-3c-0.6,0-1-0.4-1-1s0.4-1,1-1h3c0.6,0,1,0.4,1,1S60.6,75,60,75z"/>
		</g>
	</g>
	<g>
		<g>
			<path fill="#FFFFFF" d="M70,84h-8c-0.6,0-1-0.4-1-1s0.4-1,1-1h8c0.6,0,1,0.4,1,1S70.6,84,70,84z"/>
		</g>
	</g>
	<g>
		<g>
			<path fill="#FFFFFF" d="M71,88h-4c-0.6,0-1-0.4-1-1s0.4-1,1-1h4c0.6,0,1,0.4,1,1S71.6,88,71,88z"/>
		</g>
	</g>
	<g>
		<g>
			<path fill="#FFFFFF" d="M93,55h-5c-0.6,0-1-0.4-1-1s0.4-1,1-1h5c0.6,0,1,0.4,1,1S93.6,55,93,55z"/>
		</g>
	</g>
</g>
</svg>
