<?xml version="1.0" encoding="utf-8"?>
<!-- Generator: Adobe Illustrator 18.0.0, SVG Export Plug-In . SVG Version: 6.00 Build 0)  -->
<!DOCTYPE svg PUBLIC "-//W3C//DTD SVG 1.1//EN" "http://www.w3.org/Graphics/SVG/1.1/DTD/svg11.dtd">
<svg version="1.1" id="Layer_1" xmlns="http://www.w3.org/2000/svg" xmlns:xlink="http://www.w3.org/1999/xlink" x="0px" y="0px"
	 viewBox="0 0 1112 1503.8" enable-background="new 0 0 1112 1503.8" xml:space="preserve">
<g>
	<path fill="#FFFFFF" d="M751.3,671.1c-18.7,64.4-23.8,119.8-25,152H994l-144-152H751.3z"/>
	<path fill="#FFFFFF" d="M360.4,671.1H250l-144,152h278.9C383.8,790.8,378.8,735.4,360.4,671.1z"/>
</g>
<polygon fill="#FFFFFF" points="617.2,1424.7 617.2,1017.1 494.2,1017.1 494.2,1424.7 428,1424.7 554.8,1503.8 686,1424.7 "/>
<polygon fill="#FFFFFF" points="1006,995.9 120,995.9 106,845.1 1022,845.1 "/>
<polygon fill="#FFFFFF" points="476.6,1322.7 448.1,1322.7 448.1,1017.1 343.1,1017.1 343.1,1322.7 268.9,1322.7 395.7,1401.8 
	476.6,1353 "/>
<polygon fill="#FFFFFF" points="634.9,1322.7 663.4,1322.7 663.4,1017.1 768.4,1017.1 768.4,1322.7 842.6,1322.7 715.8,1401.8 
	634.9,1353 "/>
<g>
	<path fill="#FFFFFF" d="M454.4,0.3C374.9,8.8,308,26.8,252,49.7c48.8,40.5,146.6,138.7,185,299.4c54.4,227.5,49.6,427.8,47.5,474
		h44.7c1.1-48.7,4.7-267.1-18.3-470C492.4,188.9,467.3,60.4,454.4,0.3z"/>
	<path fill="#FFFFFF" d="M447.5,823.1c-2.9-52.4-20.8-298.3-101.6-446C280.8,258.2,172,168.9,115.4,127.7
		C31.5,192.6,0,257.1,0,257.1s160,54,284,216s118,350,118,350H447.5z"/>
</g>
<g>
	<path fill="#FFFFFF" d="M674.3,349.1C712.8,188.2,810.8,89.9,859.5,49.5C803,26.5,735.3,8.3,654.7,0
		c-12.9,60-38.1,188.6-56.7,353.1c-22.9,202.9-19.4,421.3-18.3,470h47.1C624.8,776.9,619.9,576.6,674.3,349.1z"/>
	<path fill="#FFFFFF" d="M996.3,127.4C939.8,168.5,830.6,258,765.5,377.1c-80.9,147.7-98.7,393.6-101.6,446H710c0,0-6-188,118-350
		s284-216,284-216S1080.4,192.5,996.3,127.4z"/>
</g>
</svg>
