<?xml version="1.0" encoding="UTF-8" standalone="no"?>
<svg width="300px" height="70px" viewBox="0 0 300 70" version="1.1" xmlns="http://www.w3.org/2000/svg" xmlns:xlink="http://www.w3.org/1999/xlink" xmlns:sketch="http://www.bohemiancoding.com/sketch/ns">
    <!-- Generator: Sketch 3.3.2 (12043) - http://www.bohemiancoding.com/sketch -->
    <title>Group Copy</title>
    <desc>Created with Sketch.</desc>
    <defs></defs>
    <g id="Page-1" stroke="none" stroke-width="1" fill="none" fill-rule="evenodd" sketch:type="MSPage">
        <g id="Group-Copy" sketch:type="MSLayerGroup" fill="#ED891C">
            <path d="M52.9852453,0.0933002974 L1.91702258,0.0933002974 L0.117167765,5.94154545 L23.5644006,5.94154545 L23.5644006,64.4819149 C23.5644006,67.5632956 25.4185077,69.1424758 28.9808272,69.1424758 L32.0717388,69.1424758 L32.0717388,5.94154545 L51.1780591,5.94154545 L52.9852453,0.0933002974 L52.9852453,0.0933002974 Z M214.118219,14.6211712 C212.061765,14.6211712 210.354286,15.3073887 209.933465,16.3359819 L192.946648,61.5464286 L196.107207,61.5464286 C199.528764,61.5464286 201.047094,61.2663698 202.071288,58.4525845 L205.870412,47.8272095 L216.109423,47.8272095 L214.602823,42.7626893 L207.514108,42.7626893 L213.844758,24.8939066 L225.285383,58.4525845 C226.238463,61.2663698 227.888024,61.5464286 231.581576,61.5464286 L235.562517,61.5464286 L218.298574,16.3359819 C217.889483,15.3073887 216.036842,14.6211712 214.118219,14.6211712 L214.118219,14.6211712 Z M282.652731,16.3359819 C282.244373,15.3073887 280.383668,14.6211712 278.460646,14.6211712 C276.412257,14.6211712 274.700379,15.3073887 274.289821,16.3359819 L257.300805,61.5464286 L260.4511,61.5464286 C263.873391,61.5464286 265.385855,61.2663698 266.413715,58.4525845 L270.215038,47.8272095 L280.46358,47.8272095 L278.951115,42.7626893 L271.8624,42.7626893 L278.202581,24.8939066 L289.631476,58.4525845 C290.586755,61.2663698 292.240715,61.5464286 295.932067,61.5464286 L299.910809,61.5464286 L282.652731,16.3359819 L282.652731,16.3359819 Z M132.65481,14.6211712 C130.58956,14.6211712 128.88428,15.3073887 128.475188,16.3359819 L112.137932,59.8213539 L99.9810306,41.3323362 C106.346872,40.2370274 110.110804,36.8154704 110.110804,31.0691315 L110.110804,27.0134098 C110.110804,18.6592976 102.378393,15.2450719 92.0975933,15.2450719 L77.7163501,15.2450719 L77.7163501,56.4716445 L59.1760127,56.4716445 C51.8424291,56.4716445 50.2038647,54.8352796 50.2038647,47.2920184 L50.2038647,39.1431849 L63.9729373,39.1431849 L65.4773374,34.0090166 L50.2038647,34.0090166 L50.2038647,20.3719089 L70.4054938,20.3719089 L71.9846739,15.2450719 L41.7757055,15.2450719 L41.7757055,47.2920184 C41.7757055,58.0508247 44.3138307,61.5464286 58.9678014,61.5464286 L86.1408436,61.4005341 L86.1408436,20.3719089 L92.0975933,20.3719089 C98.6100618,20.3719089 101.899654,22.6307084 101.899654,27.0823248 L101.899654,31.0691315 C101.899654,35.5837979 97.7867474,37.0141509 92.784544,37.0141509 L89.0132799,37.0141509 L101.758891,58.8000921 C103.191444,61.3286865 103.880594,61.5464286 107.236902,61.5464286 L114.632069,61.5464286 C118.055825,61.5464286 119.570489,61.2663698 120.604214,58.4525845 L124.401871,47.8272095 L134.643082,47.8272095 L133.135749,42.7626893 L126.052899,42.7626893 L132.379884,24.8939066 L143.808045,58.4525845 C144.772855,61.2663698 146.41142,61.5464286 150.124766,61.5464286 L154.096177,61.5464286 L136.827101,16.3359819 C136.423142,15.3073887 134.571234,14.6211712 132.65481,14.6211712 L132.65481,14.6211712 Z M184.603532,42.5046245 C184.603532,51.8785323 181.511888,56.4716445 173.229623,56.4716445 L165.687828,56.4716445 L165.687828,20.3719089 L172.963494,20.3719089 C181.511888,20.3719089 184.603532,25.3697135 184.603532,34.7575509 L184.603532,42.5046245 L184.603532,42.5046245 Z M193.017029,34.6886359 C193.017029,21.6783616 186.385792,15.2450719 172.963494,15.2450719 L157.274332,15.2450719 L157.274332,56.8858677 C157.274332,59.9621165 158.984744,61.5464286 162.538999,61.5464286 L172.963494,61.5464286 L174.701765,61.5090386 C187.197376,61.0581585 193.017029,55.542025 193.017029,42.5046245 L193.017029,34.6886359 L193.017029,34.6886359 Z M266.838202,15.2802626 L228.390224,15.2802626 L226.816909,20.4136978 L242.578652,20.4136978 L242.578652,56.9430525 C242.578652,60.0339641 244.435692,61.6160768 247.992146,61.6160768 L251.08599,61.6160768 L251.08599,20.4136978 L265.333069,20.4136978 L266.838202,15.2802626 L266.838202,15.2802626 Z" id="Shape" sketch:type="MSShapeGroup"></path>
        </g>
    </g>
</svg>