<?xml version="1.0" encoding="UTF-8" standalone="no"?>
<svg width="292px" height="35px" viewBox="0 0 292 35" version="1.1" xmlns="http://www.w3.org/2000/svg" xmlns:xlink="http://www.w3.org/1999/xlink" xmlns:sketch="http://www.bohemiancoding.com/sketch/ns">
    <!-- Generator: Sketch 3.3.2 (12043) - http://www.bohemiancoding.com/sketch -->
    <title>teradata-listener-logo</title>
    <desc>Created with Sketch.</desc>
    <defs></defs>
    <g id="Page-1" stroke="none" stroke-width="1" fill="none" fill-rule="evenodd" sketch:type="MSPage">
        <g id="teradata-listener-logo" sketch:type="MSLayerGroup" transform="translate(-1.000000, 0.000000)" fill="#FFFFFF">
            <path d="M75.123,6.8661 L68.38454,6.8661 L68.38454,24.7209 C68.38454,26.05142 69.114182,26.73815 70.65931,26.73815 L75.85264,26.73815 C81.21765,26.523549 83.70702,24.16294 83.70702,18.58333 L83.70702,15.23556 C83.7499401,9.65595 80.91721,6.86614 75.123,6.86614 L75.123,6.8661 Z M80.1447,18.5833 C80.1447,22.61779 78.81418,24.59212 75.25181,24.59212 L72.0328,24.59212 L72.0328,9.09792 L75.16597,9.09792 C78.81418,9.09792 80.1447,11.24393 80.1447,15.27842 L80.1447,18.58327 L80.1447,18.5833 Z" id="Shape" sketch:type="MSShapeGroup"></path>
            <path d="M120.404,6.6085 C119.545598,6.6085 118.77304,6.908941 118.60136,7.338142 L111.30494,26.738042 L112.63546,26.738042 C114.09474,26.738042 114.73855,26.609282 115.21067,25.407522 L116.84163,20.857992 L121.21948,20.857992 L120.575678,18.669062 L117.528348,18.669062 L120.232318,10.986362 L125.125208,25.364562 C125.554409,26.566322 126.241128,26.695082 127.829178,26.695082 L129.545978,26.695082 L122.163718,7.295182 C122.034958,6.908901 121.219476,6.60846 120.403998,6.60846 L120.404,6.6085 Z" id="Shape" sketch:type="MSShapeGroup"></path>
            <path d="M11.0433,27.9828 C11.0433,29.31332 11.858782,30.00005 13.36099,30.00005 L14.69151,30.00005 L14.69151,2.87455 L22.88925,2.87455 L23.661812,0.38518 L1.772512,0.38518 L0.99995,2.87455 L11.04325,2.87455 L11.04325,27.98285 L11.0433,27.9828 Z" id="Shape" sketch:type="MSShapeGroup"></path>
            <path d="M31.1299,9.0979 L31.816622,6.90897 L18.854722,6.90897 L18.854722,20.64337 C18.854722,25.27874 19.927722,26.73803 26.236982,26.73803 L37.911282,26.6951099 L37.911282,9.0979099 L40.486492,9.0979099 C43.276302,9.0979099 44.692662,10.0850719 44.692662,11.9735599 L44.692662,13.6903599 C44.692662,15.6217599 42.932942,16.2226499 40.786932,16.2226499 L39.155972,16.2226499 L44.606822,25.5792299 C45.207704,26.6522299 45.508144,26.7380699 46.967432,26.7380699 L50.143522,26.7380699 C51.602802,26.7380699 52.246612,26.6093099 52.718732,25.4075499 L54.349692,20.8580199 L58.727542,20.8580199 L58.08374,18.6690899 L55.03641,18.6690899 L57.74038,10.9863899 L62.63327,25.3645899 C63.062471,26.5663499 63.74919,26.6951099 65.33724,26.6951099 L67.05404,26.6951099 L59.62886,7.2952099 C59.45718,6.8660089 58.641698,6.5655679 57.82622,6.5655679 C56.924898,6.5655679 56.19526,6.8660089 56.02358,7.2952099 L49.07052,26.0084099 L43.83427,18.0681899 C46.58116,17.5960689 48.1692,16.1367899 48.1692,13.6474199 L48.1692,11.8876999 C48.1692,8.3253299 44.86435,6.8231299 40.44358,6.8231299 L34.306,6.8231299 L34.306,24.5062299 L26.32286,24.5062299 C23.18969,24.5062299 22.46005,23.8195079 22.46005,20.5575799 L22.46005,17.1239699 L28.38302,17.1239699 L29.026822,14.9350399 L22.502962,14.9350399 L22.502962,9.0979099 L31.129902,9.0979099 L31.1299,9.0979 Z" id="Shape" sketch:type="MSShapeGroup"></path>
            <path d="M107.313,26.781 L108.64352,26.781 L108.64352,9.0979 L114.73818,9.0979 L115.381982,6.90897 L98.900682,6.90897 L98.21396,9.0979 L104.99534,9.0979 L104.99534,24.7637 C104.99534,26.09422 105.810822,26.78095 107.31303,26.78095 L107.313,26.781 Z" id="Shape" sketch:type="MSShapeGroup"></path>
            <path d="M92.8061,6.6085 C91.904778,6.6085 91.17514,6.908941 91.00346,7.338142 L83.70704,26.738042 L85.08048,26.738042 C86.53976,26.738042 87.18357,26.609282 87.65569,25.407522 L89.28665,20.857992 L93.6645,20.857992 L93.020698,18.669062 L89.973368,18.669062 L92.677338,10.986362 L97.570228,25.407562 C97.999429,26.609322 98.686148,26.738082 100.274198,26.738082 L101.990998,26.738082 L94.565818,7.338182 C94.394138,6.908981 93.621576,6.60854 92.806098,6.60854 L92.8061,6.6085 Z" id="Shape" sketch:type="MSShapeGroup"></path>
            <path d="M267.226,11.1701 C269.20404,11.74447 270.90566,11.901117 271.89468,11.937975 L271.89468,3.715575 L267.226,8.138535 L267.226,11.170105 L267.226,11.1701 Z" id="Shape" sketch:type="MSShapeGroup"></path>
            <path d="M267.226,23.1766 L267.226,26.56753 L271.89468,30.99049 L271.89468,22.42408 C270.902586,22.4578665 269.20098,22.611441 267.226,23.176597 L267.226,23.1766 Z" id="Shape" sketch:type="MSShapeGroup"></path>
            <path d="M290.373,15.289 L277.8536,15.289 L277.8536,19.06694 L290.373,19.06694 L290.373,21.10027 L292.80256,17.20561 L290.373,13.1758 L290.373,15.28899 L290.373,15.289 Z" id="Shape" sketch:type="MSShapeGroup"></path>
            <path d="M277.202,3.347 L277.202,30.5605 L272.57018,30.99051 L272.57018,2.85561 L277.202,3.34705 L277.202,3.347 Z" id="Shape" sketch:type="MSShapeGroup"></path>
            <path d="M287.24,19.6076 L287.24,20.482977 L277.8535,20.482977 L277.8535,23.708047 L287.24,23.708047 L287.24,25.987097 L289.66956,22.092437 L288.17067,19.607597 L287.240006,19.607597 L287.24,19.6076 Z" id="Shape" sketch:type="MSShapeGroup"></path>
            <path d="M287.24,14.7454 L287.24,13.870023 L277.8535,13.870023 L277.8535,10.644953 L287.24,10.644953 L287.24,8.365903 L289.66956,12.260563 L288.17067,14.745403 L287.240006,14.745403 L287.24,14.7454 Z" id="Shape" sketch:type="MSShapeGroup"></path>
            <path d="M246.623,20.2894 C246.884077,22.73124 247.436947,24.78607 248.14032,26.50611 C249.38428,25.00722 252.40049,22.00329 257.33639,20.82384 C264.32405,19.15294 270.47629,19.30038 271.89529,19.36488 L271.89529,17.99192 C270.39947,17.9581335 263.69132,17.84756 257.45929,18.554004 C252.41589,19.122231 248.46901,19.893174 246.62309,20.289404 L246.623,20.2894 Z" id="Shape" sketch:type="MSShapeGroup"></path>
            <path d="M271.895,20.5014 C270.28553,20.5904735 262.73272,21.140272 258.1961,23.62204 C254.54409,25.62159 251.80124,28.96338 250.53578,30.70184 C252.52918,33.27883 254.5103,34.24635 254.5103,34.24635 C254.5103,34.24635 256.16891,29.33195 261.14474,25.52329 C266.12057,21.71463 271.89494,21.89892 271.89494,21.89892 L271.89494,20.50139 L271.895,20.5014 Z" id="Shape" sketch:type="MSShapeGroup"></path>
            <path d="M257.336,13.5352 C252.39396,12.35267 249.37468,9.3426 248.13379,7.84678 C247.427345,9.58218 246.86833,11.66158 246.6134,14.13721 C248.4563,14.533433 252.40625,15.30745 257.4589,15.87875 C263.69097,16.582123 270.3991,16.474621 271.8949,16.440834 L271.8949,14.994154 C270.47587,15.055584 264.32366,15.206087 257.336,13.535194 L257.336,13.5352 Z" id="Shape" sketch:type="MSShapeGroup"></path>
            <path d="M250.527,3.645 C251.78939,5.3804 254.53838,8.73447 258.19653,10.73402 C262.73313,13.21886 270.28593,13.76559 271.89543,13.85466 L271.89543,12.4387 C271.89543,12.4387 266.12101,12.62299 261.14523,8.81433 C256.1694,5.00567 254.51079,0.09127 254.51079,0.09127 C254.51079,0.09127 252.5266,1.061863 250.52706,3.64499 L250.527,3.645 Z" id="Shape" sketch:type="MSShapeGroup"></path>
            <path d="M139.369492,24.4239515 L149.248388,24.4239515 L149.248388,26.5941691 L136.606238,26.5941691 L136.606238,6.46778283 L139.36947,6.46778283 L139.36947,24.4239125 L139.369492,24.4239515 Z" id="Shape" sketch:type="MSShapeGroup"></path>
            <path d="M154.847072,26.5942081 L152.198385,26.5942081 L152.198385,11.6377033 L154.847072,11.6377033 L154.847072,26.5942081 L154.847072,26.5942081 Z M151.983416,7.67040091 C151.983416,7.25570899 152.114658,6.90552533 152.377141,6.61984505 C152.639624,6.33416868 153.028576,6.19133 153.543994,6.19133 C154.059415,6.19133 154.450753,6.33416868 154.718006,6.61984505 C154.985261,6.90552143 155.118888,7.25570607 155.118888,7.67040091 C155.118888,8.08509283 154.985261,8.43066911 154.718006,8.70712585 C154.450751,8.98358745 154.059413,9.12181777 153.543994,9.12181777 C153.028573,9.12181777 152.639621,8.98358745 152.377141,8.70712585 C152.114658,8.43066424 151.983416,8.08508796 151.983416,7.67040091 L151.983416,7.67040091 Z" id="Shape" sketch:type="MSShapeGroup"></path>
            <path d="M168.104453,22.6270032 C168.104453,21.9358506 167.834812,21.3990528 167.295529,21.0166213 C166.756246,20.634183 165.816075,20.3047341 164.475034,20.0282705 C163.133983,19.7518089 162.069737,19.4200558 161.282286,19.0330091 C160.494837,18.6459634 159.912598,18.1851948 159.535586,17.650706 C159.158566,17.1162142 158.970056,16.4803503 158.970056,15.74312 C158.970056,14.5174796 159.506952,13.4807449 160.580743,12.6329354 C161.654536,11.7851211 163.026605,11.3612115 164.696955,11.3612115 C166.453204,11.3612115 167.877775,11.7989413 168.970657,12.674399 C170.063539,13.5498596 170.609981,14.6695223 170.609981,16.0334037 L167.946976,16.0334037 C167.946976,15.3330354 167.639155,14.7294271 167.023513,14.2225855 C166.407872,13.7157401 165.632359,13.4623173 164.696956,13.4623173 C163.732928,13.4623173 162.978882,13.6650559 162.434831,14.0705321 C161.890775,14.4760083 161.618747,15.0058926 161.618747,15.6601822 C161.618747,16.2776117 161.871685,16.7429907 162.377562,17.0563065 C162.883438,17.3696292 163.797353,17.6691287 165.119317,17.954805 C166.441281,18.2404814 167.512686,18.5814503 168.333542,18.9777088 C169.154398,19.3739702 169.762883,19.8508652 170.158993,20.4083958 C170.555103,20.9659255 170.753159,21.6455571 170.753159,22.4472928 C170.753159,23.7835221 170.199559,24.8548097 169.092358,25.6611556 C167.985157,26.4675006 166.548658,26.8706746 164.782871,26.8706746 C163.542047,26.8706746 162.444385,26.6587212 161.489905,26.2348135 C160.535423,25.8109069 159.78854,25.2188204 159.249258,24.4585483 C158.709975,23.6982801 158.440334,22.8758088 158.440334,21.9911363 L161.08902,21.9911363 C161.136744,22.8481654 161.492289,23.527802 162.155654,24.0300332 C162.81902,24.5322713 163.694761,24.7833899 164.782874,24.7833899 C165.785081,24.7833899 166.589237,24.5875629 167.19533,24.1959098 C167.801427,23.8042568 168.104476,23.281284 168.104476,22.6269915 L168.104453,22.6270032 Z" id="Shape" sketch:type="MSShapeGroup"></path>
            <path d="M177.797406,8.01602787 L177.797406,11.6376643 L180.689493,11.6376643 L180.689493,13.6143659 L177.797406,13.6143659 L177.797406,22.8896348 C177.797406,23.4886338 177.926261,23.9378807 178.183972,24.237385 C178.441682,24.5368845 178.880744,24.6866348 179.501156,24.6866348 C179.80659,24.6866348 180.226562,24.6313426 180.761077,24.5207582 L180.761077,26.5942178 C180.064305,26.7785249 179.38662,26.8706794 178.728034,26.8706794 C177.544473,26.8706794 176.652035,26.5251032 176.050711,25.8339545 C175.449387,25.1428019 175.148725,24.1613676 175.148725,22.8896436 L175.148725,13.6143747 L172.32823,13.6143747 L172.32823,11.6376731 L175.148725,11.6376731 L175.148725,8.01603665 L177.797411,8.01603665 L177.797406,8.01602787 Z" id="Shape" sketch:type="MSShapeGroup"></path>
            <path d="M190.210183,26.8706317 C188.110317,26.8706317 186.401792,26.2048212 185.084608,24.8731983 C183.767424,23.5415793 183.108827,21.7607037 183.108827,19.5305911 L183.108827,19.0606076 C183.108827,17.5769361 183.40233,16.2522277 183.989337,15.0864824 C184.576344,13.920737 185.3972,13.0084124 186.451907,12.3495184 C187.506612,11.6906195 188.6496,11.3611676 189.880885,11.3611676 C191.894842,11.3611676 193.460195,12.001636 194.576944,13.2825747 C195.693694,14.5635096 196.252064,16.3973696 196.252064,18.7841548 L196.252064,19.8485318 L185.757525,19.8485318 C185.795704,21.3229924 186.241925,22.5140799 187.096186,23.4217941 C187.950449,24.3295084 189.036172,24.7833655 190.353356,24.7833655 C191.288749,24.7833655 192.080968,24.5990584 192.730017,24.2304433 C193.379065,23.8618281 193.946984,23.3734141 194.433772,22.7652033 L196.051619,23.9816328 C194.753522,25.9076405 192.806377,26.8706492 190.210184,26.8706492 L190.210183,26.8706317 Z M189.880344,13.4623329 C188.811322,13.4623329 187.914111,13.8378596 187.188703,14.588915 C186.463296,15.3399675 186.014691,16.3928226 185.842882,17.7474835 L193.602825,17.7474835 L193.602825,17.5539606 C193.526466,16.2545943 193.163763,15.247812 192.514712,14.5336235 C191.865663,13.8194321 190.987533,13.4623359 189.880344,13.4623359 L189.880344,13.4623329 Z" id="Shape" sketch:type="MSShapeGroup"></path>
            <path d="M201.821612,11.6376058 L201.907516,13.5175397 C203.091077,12.079942 204.637342,11.3611432 206.546301,11.3611432 C209.820179,11.3611432 211.471431,13.1443191 211.500068,16.7106708 L211.500068,26.5941788 L208.851381,26.5941788 L208.851381,16.6968301 C208.841837,15.6186319 208.586513,14.8215066 208.085409,14.3054444 C207.584305,13.7893832 206.804021,13.5313531 205.744544,13.5313531 C204.885509,13.5313531 204.131467,13.7525221 203.482419,14.1948594 C202.83337,14.6371975 202.327494,15.2177631 201.96479,15.9365619 L201.96479,26.594173 L199.316103,26.594173 L199.316103,11.6376682 L201.821618,11.6376682 L201.821612,11.6376058 Z" id="Shape" sketch:type="MSShapeGroup"></path>
            <path d="M221.922351,26.8706317 C219.822485,26.8706317 218.11396,26.2048212 216.796776,24.8731983 C215.479592,23.5415793 214.820994,21.7607037 214.820994,19.5305911 L214.820994,19.0606076 C214.820994,17.5769361 215.114498,16.2522277 215.701505,15.0864824 C216.288512,13.920737 217.109367,13.0084124 218.164075,12.3495184 C219.218779,11.6906195 220.361768,11.3611676 221.593053,11.3611676 C223.607009,11.3611676 225.172362,12.001636 226.289112,13.2825747 C227.405862,14.5635096 227.964231,16.3973696 227.964231,18.7841548 L227.964231,19.8485318 L217.469693,19.8485318 C217.507872,21.3229924 217.954093,22.5140799 218.808354,23.4217941 C219.662616,24.3295084 220.74834,24.7833655 222.065524,24.7833655 C223.000917,24.7833655 223.793136,24.5990584 224.442184,24.2304433 C225.091233,23.8618281 225.659151,23.3734141 226.14594,22.7652033 L227.763786,23.9816328 C226.46569,25.9076405 224.518545,26.8706492 221.922352,26.8706492 L221.922351,26.8706317 Z M221.593593,13.4623329 C220.524571,13.4623329 219.62736,13.8378596 218.901952,14.588915 C218.176545,15.3399675 217.72794,16.3928226 217.556131,17.7474835 L225.316074,17.7474835 L225.316074,17.5539606 C225.239715,16.2545943 224.877012,15.247812 224.227961,14.5336235 C223.578912,13.8194321 222.700783,13.4623359 221.593593,13.4623359 L221.593593,13.4623329 Z" id="Shape" sketch:type="MSShapeGroup"></path>
            <path d="M238.517059,13.9322335 C238.116176,13.867726 237.681886,13.8354721 237.214193,13.8354721 C235.477031,13.8354721 234.29825,14.5496636 233.677838,15.9780474 L233.677838,26.5941364 L231.029152,26.5941364 L231.029152,11.6376316 L233.606258,11.6376316 L233.64921,13.365513 C234.517789,12.0292837 235.749075,11.3611691 237.343054,11.3611691 C237.858475,11.3611691 238.249813,11.4256766 238.517066,11.5546919 L238.517066,13.9322565 L238.517059,13.9322335 Z" id="Shape" sketch:type="MSShapeGroup"></path>
        </g>
    </g>
</svg>